/* XPM */
static char *demonstration1671262576[] = {
/* columns rows colors chars-per-pixel */
"64 64 5 1 ",
"  c #83883C",
". c #83A448",
"X c #8BAC50",
"o c #91AF55",
"O c #A0B74F",
/* pixels */
".OO..OO......o........................o..OO.....................",
"..OO.O  ....oo............X...........oo.O  ....................",
".  O........o  ....X..X...X..........  o........................",
"...................XX.X..XX.....................................",
"....................X..X.X...o...oo..................O..........",
"....................XX.X.X...oo.oo.........O.........OO.........",
".........o...........X.X.....oo.o  .o......OO........OO..OO.....",
"........oo...........X......  o....oo......OO.......  O.OO......",
"........oo.........................o  .OOO  O...........O  .....",
"....oo..o  .............................OOO.....................",
".....oo................................   O.....................",
"....  o...O.................................................oo..",
"..........OO.............oo..................................oo.",
"..........OO.........o..oo...................X........oo....  o.",
"........O  O.........oo.o  .............XX.XX....OO..oo.........",
"....O..OO............oo................XX.XX..X...OO.o  ........",
"....OO.O ...........  o...ooo...X......X..X..X...  O........O...",
".... O.................... ooo...XX.XX......XX.............OO...",
"XX.........................  ..X..XX.XX.....X..........OO..OO...",
".XX......X......................X..X..X.................OO.O  ..",
"..X.XX.XX.......................XX....................   O......",
"...XX.XX..X......................X..............................",
"...X..X..X......................................................",
"........XX......................................................",
"........X...........................................X...........",
".....................................................XX.XX......",
"...................................................X..XX.XX.....",
"....................................................X..X..X.....",
"....................................................XX..........",
".....................................................X..........",
"................................................................",
"..........X.....................................................",
"...X..X...X......................................oo.............",
"...XX.X..XX............................X..........oo..o.........",
"....X..X.X........................XX.XX..........  o.oo.........",
"....XX.X.X.......................XX.XX..X............o  ........",
".....X.X..................X......X..X..X........................",
".....X....o................XX.XX......XX........................",
"..........oo.............X..XX.XX.....X.........................",
"..........oo..............X..X..X.........oo....................",
".........  o..............XX.............oo.....................",
"......ooo..................X.........oo..o  .................o..",
"....oooo .............................oo.....................oo.",
".....   .............................  o.....................oo.",
"...................................X.....ooo................  o.",
"...X........................X..X...X..... ooo............ooo....",
".XX.........................XX.X..XX......  ..............ooo...",
"XX..X........................X..X.X......................   o...",
"X..X.........................XX.X.X.............................",
"..XX..........................X.X...............................",
"..X...........................X.................................",
".......................................................X........",
"..................................................XX.XX.........",
"........................oo........X.......o......XX.XX..X.......",
".......oo..............oo..X..X...X......oo......X..X..X........",
".ooo..oo...........oo..o  .XX.X..XX...o..oo...........XX........",
"ooo ..o  ...........oo......X..X.X....oo.o  ..........X.........",
".  ................  o......XX.X.X...  o........................",
".............................X.X................................",
".............................X..................................",
"................................................................",
"................................................................",
"................................................................",
"................................................................"
};
