/* XPM */
static char *de3efb6a0e204511a17641a0deea0a7e7FwLqFctaJ6TbkrM[] = {
/* columns rows colors chars-per-pixel */
"64 64 47 1 ",
"  c None",
". c #752E25",
"X c #763127",
"o c #7B3124",
"O c #7C3629",
"+ c #7E3A2B",
"@ c #823524",
"# c #873824",
"$ c #8C3C26",
"% c #833D2C",
"& c #8B3F29",
"* c #903F29",
"= c #86422D",
"- c #8C442D",
"; c #924027",
": c #93452A",
"> c #99462A",
", c #96482C",
"< c #9B4B2B",
"1 c #9F512B",
"2 c #8D4630",
"3 c #8F4931",
"4 c #914730",
"5 c #934B32",
"6 c #994E33",
"7 c #975034",
"8 c #9B5436",
"9 c #9F5837",
"0 c #9E5738",
"q c #9E5939",
"w c #A24E2B",
"e c #A4522B",
"r c #AA552D",
"t c #AD592D",
"y c #B25D2D",
"u c #A05637",
"i c #A15A37",
"p c #AF5D30",
"a c #A25738",
"s c #A25C39",
"d c #B05D30",
"f c #B6602E",
"g c #B9632F",
"h c #A6613D",
"j c #A8613C",
"k c #B66231",
"l c #BA6530",
/* pixels */
"ydffytytyyftrttttetrtetrrew1e1wew<<1eeeeeee><<<<>>><>>>>><<<><::",
"yytytrtryytytttttrttteyttttrrrereee1<ww<<<>>><<>>>>;>>;>;;;:;;;;",
"lgffyyyyyytyftffffyytttdpgtttrrteeeereeere<ee<1<e<<1>><><<:>:;:>",
"1ee111ew1<<1<e1ew<w<e1111<<<<<<<>><:::;;::,,><>,;:<>-;$=;::;:<;;",
"XXXoo.X..X...X+%%%%%+O+%+=XXO%=%%%%+%%===23578888787774=%%==--=-",
"--4,,:;*&&&--:,,444443:4,55444445554:33,66466680990iaiia088875-3",
"---54:---43=-3333322234433334533-=33373354-333575778886775888875",
"                                                                ",
"                                                                ",
"                                                                ",
"                                                                ",
"                                                                ",
"                                                                ",
"                                                                ",
"                                                                ",
"                                                                ",
"                                                                ",
"                                                                ",
"                                                                ",
"                                                                ",
"                                                                ",
"                                                                ",
"                                                                ",
"                                                                ",
"                                                                ",
"                                                                ",
"                                                                ",
"                                                                ",
"                                                                ",
"                                                                ",
"                                                                ",
"                                                                ",
"                                                                ",
"                                                                ",
"                                                                ",
"                                                                ",
"                                                                ",
"                                                                ",
"                                                                ",
"                                                                ",
"                                                                ",
"                                                                ",
"                                                                ",
"                                                                ",
"                                                                ",
"                                                                ",
"                                                                ",
"                                                                ",
"                                                                ",
"                                                                ",
"                                                                ",
"                                                                ",
"                                                                ",
"                                                                ",
"                                                                ",
"                                                                ",
"                                                                ",
"=;<,:,<<66<wwu<<<<<8<<><<>6<<<,<<<:*,;;4::,;,4:>,<,,,<,::,;,5,;:",
">www6werrrrrrrewewwrttrrwrrwwwwwwwww>w<><<>::***>>>*:,>>:,>>>>,:",
">>><>><<www>ww<<<><<<<<<,<>>,,>>,>*****&$$&$$$*$#####@@@@@@@@o@@",
"&--:,,,-,:,:;-::,,,:<,,-*&-*=-$$&&&-&*;4:--:3;--*2;3,--==:-=4464",
"%%%=======--22===333333344557787678888qs90iiqiiqsssississsshssjj",
"-3---==--3=34-,43,7,3,,557557877677778780080q0000qsssssssjshhsss",
"-34-3=3=3---33333733733355553535557756880070i0ii0aiiissssshhhhhh"
};
