/* XPM */
static char *NPC_Merchant_interacting_entry_51671266078[] = {
/* columns rows colors chars-per-pixel */
"64 64 43 1 ",
"  c None",
". c #52353D",
"X c #5A303C",
"o c #6D413F",
"O c #194454",
"+ c #185856",
"@ c #226D6B",
"# c #247771",
"$ c #5F4252",
"% c #8D4D43",
"& c #8D5143",
"* c #8C575E",
"= c #A55A48",
"- c #9E6B4F",
"; c #88635B",
": c #B1744E",
"> c #A97250",
", c #BC7B52",
"< c #806379",
"1 c #A3616A",
"2 c #2E957D",
"3 c #2F9B7C",
"4 c #CE875A",
"5 c #C9905F",
"6 c #FE8E63",
"7 c #FCA372",
"8 c #FBB775",
"9 c #2DB18B",
"0 c #50BFAB",
"q c #71A3B4",
"w c #51CF96",
"e c #2CBDFF",
"r c #76E0CD",
"t c #CB8F83",
"y c #CCB392",
"u c #FFBD85",
"i c #FFBF93",
"p c #FFCB9E",
"a c #FFD39E",
"s c #E6CEAE",
"d c #B7E5F5",
"f c #FFE5C2",
"g c #CBFEF4",
/* pixels */
"                                                                ",
"                                                                ",
"                                                                ",
"                                           iii                  ",
"                                          iiiii                 ",
"                                          4iiii                 ",
"                                          444ii                 ",
"                                          444%%                 ",
"                                          444%%                 ",
"                                          444%%                 ",
"                                          :44%%                 ",
"                                          %:4%%                 ",
"                                          4::%%                 ",
"                                          :::%%                 ",
"                                          %::%%                 ",
"                                          %%:%%                 ",
"                                          %%%%X                 ",
"             888888888888888888           %%%XX                 ",
"           555555588888888888888           XXX                  ",
"         55555555555888888888888:          XXX                  ",
"        555&&&&&&&555::::::::::gggrrr      XX                   ",
"        55&=======&55::::::::ggggggrrrr    X%                   ",
"       55&=========&55:g:&&&ggggggggrrrr   %%                   ",
"       55&=========&55gg&&&ggggggggggrrr   %%                   ",
"       55&=========&55ggrrrggggggggggrrrr  :r                   ",
"       55&=========&55gggrrrrggggggggrrrrrrrr                   ",
"       55&=========&,,&ggggrggggggg666rrrrrrr                   ",
"       ,,&&&&&oo===&,,&ggggggggggg66660rrrrr:                   ",
"        ,>&dddqo==&,,oooggggggggg6777700rrr%%                   ",
"        ,,&qqoo&&&,,,oooogggggg6677777000  %%                   ",
"         ,&dqo&>,,,,oooooorr00067pp77p000  %%                   ",
"          &dq&&>,,ooogooorrrr067uuuuu70000 0%                   ",
"           dq&&>>oooogg+rrrrrr67uuuuu7000000%                   ",
"          ee   www9##ggggggrrr-6uuuuu200000::                   ",
"          ee  www999##gggggrr+--6uuu622000 ::                   ",
"              ww9w99##++gggg+++--6--22     %:                   ",
"              w9w999##+++++++yy-66-        %%                   ",
"              ww99ggg##+++++yyy666++       %X                   ",
"              w99ggggg#++ff@@ssyyy6++      XX                   ",
"              99ggggggg+fffs@ssssssy+;     %%                   ",
"              99gggggggsffss@@ssssss+;     aaa                  ",
"              999ggggg+sssssy@sssssss;;666uuuu                  ",
"              99999##++sssssy+sssssss;;66-uuuu                  ",
"               ####+++sssssst+sssssss;;---uuuu                  ",
"               #uu6666ysssst<Otssssss;;;  %uu                   ",
"               #uuu6uuyyytt<O<ttssssy+    %%                    ",
"               #3uuuuu-ttt<<O<<tttttt+    X%                    ",
"               #3336------+O<<<tttytt     XX                    ",
"                ###6777---++<<<tttsst     XX                    ",
"                  ##777--+++<$$tttttt     XX                    ",
"                     77-   <$$11ttstt     XX                    ",
"                           1$1$t1t1t$     XX                    ",
"                           $$$*11ttt11    X%                    ",
"                          ****111111111   XX                    ",
"                          **111111*1111   %%                    ",
"                         11111****$*1111  XX                    ",
"                         1111****$$*1111  %X                    ",
"                         111****$$$**111  XX                    ",
"                         111**$$  $***11  XX                    ",
"                         1***$     $**11  XX                    ",
"                          ..$       $..   XX                    ",
"                          11         11   XX                    ",
"                          $$         $$   XX                    ",
"                         ...         ...                        "
};
