/* XPM */
static char *NPC_Merchant_interacting_entry_41671266078[] = {
/* columns rows colors chars-per-pixel */
"64 64 41 1 ",
"  c None",
". c #52353D",
"X c #5A303C",
"o c #6D413F",
"O c #194454",
"+ c #185856",
"@ c #226D6B",
"# c #247771",
"$ c #5F4252",
"% c #8D4D43",
"& c #8D5143",
"* c #8C575E",
"= c #A55A48",
"- c #9E6B4F",
"; c #88635B",
": c #B1744E",
"> c #A97250",
", c #BC7B52",
"< c #806379",
"1 c #A3616A",
"2 c #2E957D",
"3 c #2F9B7C",
"4 c #CE875A",
"5 c #C9905F",
"6 c #FE8E63",
"7 c #FCA372",
"8 c #FBB775",
"9 c #2DB18B",
"0 c #50BFAB",
"q c #71A3B4",
"w c #51CF96",
"e c #76E0CD",
"r c #CB8F83",
"t c #CCB392",
"y c #FFBD85",
"u c #FFBF93",
"i c #FFCB9E",
"p c #FFD39E",
"a c #E6CEAE",
"s c #B7E5F5",
"d c #CBFEF4",
/* pixels */
"                                                                ",
"                                                                ",
"                                                                ",
"                                                                ",
"                                          uuu                   ",
"                                         uuuuu                  ",
"                                         4uuuu                  ",
"                                         444uu                  ",
"                                         444%%                  ",
"                                         444%%                  ",
"                                         444%%                  ",
"                                         :44%%                  ",
"                                         %:4%%                  ",
"                                         4::%%                  ",
"                                         :::%%                  ",
"                                         %::%%                  ",
"                                         %%:%%                  ",
"                                         %%%%X                  ",
"                                         %%%XX                  ",
"            888888888888888888            XXX                   ",
"          555555588888888888888           XXX                   ",
"        55555555555888888888eeeeeee       XX                    ",
"       555&&&&&&&555::::::ddddddeeee      X%                    ",
"       55&=======&55:::::dddddddddeee     %%                    ",
"      55&=========&55:::&ddddddddddeee    %%                    ",
"      55&=========&55&&&dddddddddddeee    :%                    ",
"      55&=========&55&&&eddddddddd6eeee   ::                    ",
"      55&=========&55&&&eeedddddd666eee   ::                    ",
"      55&=========&,,&&ddddddddd6666eee   %:                    ",
"      ,,&&&&&oo===&,,&ddddddddd667770ee   %%                    ",
"       ,>&sssqo==&,,odddddddd66ii77i0eee  %%                    ",
"       ,,&qqoo&&&,,,oooooee00777777700ee %%%                    ",
"        ,&sqo&>,,,,ooooooeeee7yyyyy700eee%%%                    ",
"         &sq&&>,,ooooooooddee6yyyyy6000eee%                     ",
"          sq&&>>oooo+++++dddd-6yyy62000  ::                     ",
"             www9#####+++dddd--6--22200  ::                     ",
"            www999##++++++ddd-66-222200  %:                     ",
"            ww9w99##+++aa@@dd666++22200  %%                     ",
"            w9w999##++aaaa@adttt6++220   %X                     ",
"            ww9999yyyaaaaa@@daaaa++;20   XX                     ",
"            w9999yyyy6aaatt@daaaaa+;20   %%                     ",
"            99999yyyy66attt+aaaaaa+;;6   ppp                    ",
"            9999996--66rr<<+aaaaaaa;;666yyyy                    ",
"            99999#777-6r<<<Oraaaaaa;;666yyyy                    ",
"            99999#777--<<<<Orraaaaa;;;--yyyy                    ",
"             ####+777--<<<O<rrraaar+    %yy                     ",
"             #3333377--++OO<<rrrrrr+    %%                      ",
"             #333333++++++<<<rrrrrr     X%                      ",
"             #333333++++++<<<rrraar     XX                      ",
"             #33333#+#++++<$$rrrrrr     XX                      ",
"              ######+#+++<$$11rrarr     XX                      ",
"                ####+++++1$1$r1r1r$    XXX                      ",
"                         $$$*11rrr11   XX                       ",
"                        ****11111111   X%                       ",
"                        **111111*1111  XX                       ",
"                        *1111***$**11  %%                       ",
"                       11111***$$**11  XX                       ",
"                       1111***$$$***11 %X                       ",
"                       111**$$  $***11 XX                       ",
"                       1***$     $**11 XX                       ",
"                        ..$       $..  XX                       ",
"                        11         11  XX                       ",
"                        $$         $$  XX                       ",
"                       ...         ... XX                       "
};
