/* XPM */
static char *NPC_Merchant_interacting_entry_61671266078[] = {
/* columns rows colors chars-per-pixel */
"64 64 44 1 ",
"  c None",
". c #52353D",
"X c #5A303C",
"o c #6D413F",
"O c #194454",
"+ c #185856",
"@ c #226D6B",
"# c #247771",
"$ c #5F4252",
"% c #8D4D43",
"& c #8D5143",
"* c #8C575E",
"= c #A55A48",
"- c #9E6B4F",
"; c #88635B",
": c #B1744E",
"> c #A97250",
", c #BC7B52",
"< c #806379",
"1 c #A3616A",
"2 c #2E957D",
"3 c #2F9B7C",
"4 c #CE875A",
"5 c #C9905F",
"6 c #FE8E63",
"7 c #FCA372",
"8 c #FBB775",
"9 c #2DB18B",
"0 c #50BFAB",
"q c #71A3B4",
"w c #51CF96",
"e c #2CBDFF",
"r c #76E0CD",
"t c #98B9B2",
"y c #CB8F83",
"u c #CCB392",
"i c #FFBD85",
"p c #FFBF93",
"a c #FFCB9E",
"s c #FFD39E",
"d c #E6CEAE",
"f c #B7E5F5",
"g c #FFE5C2",
"h c #CBFEF4",
/* pixels */
"                                                                ",
"                                                                ",
"                                                                ",
"                                              ppp               ",
"                                             ppppp              ",
"                                             4pppp              ",
"                                             444pp              ",
"                                             444%%              ",
"                                             444%%              ",
"                                             444%%              ",
"                                             :44%%              ",
"                                             %:4%%              ",
"                                             4::%%              ",
"                                            :::%%               ",
"                                            %::%%               ",
"                                            %%:%%               ",
"                                            %%%%X               ",
"                                            %%%XX               ",
"                                             XXX                ",
"             888888888888888888              XXX                ",
"           555555588888888888888             XX                 ",
"         55555555555888888888rrrrrr          X%                 ",
"        555&&&&&&&555:::::::hhhhhhhrr        %%                 ",
"        55&=======&55::::::hhhhhhhhhrr       %%                 ",
"       55&=========&hh:::rhhhhhhhhhhrrr      :%                 ",
"       55&=========&hhhhrrrrhhhhhhhhrrrr     ::                 ",
"       55&=========&5hhhhhrhhhhhhhh6rrrr    %::                 ",
"       55&=========&55hhhhhhhhhhhh666rrrr   %:                  ",
"       55&=========&,,hhhhhhhhhh066660rrrrrrr%                  ",
"       ,,&&&&&oo===&,,&hhhhhhhh66677700rrrrr%%                  ",
"        ,>&fffqo==&,,oooohhh0066aa77a000    %%                  ",
"        ,,&qqoo&&&,,,ooooorrr077iiii7000    %%                  ",
"         ,&fqo&>,,,,ooooorrrrr7iiiii7000    :%                  ",
"          &fq&&>h,oooohhhhrrrr6iiiii60000   ::                  ",
"           fq&hh>oooohhhhhhrr--6iii62000000%::                  ",
"             hhww9#####++++h++--6--2220000 %:                   ",
"             hww999##+++gg@@++-66-         %%                   ",
"            hww9w99##++gggd@dd666++        %X                   ",
"         e   w9w999##+dggdd@@duuu6++;      XX                   ",
"             ww9999###dddddu@ddddd++;      %%                   ",
"             w99999##ddddhdu@dddddd+;;6    sss                  ",
"             9999999#dddhhdu+dddddd+;;6666iiii                  ",
"             999ss6ssuuhdddy+ddddddd;;6666iiii                  ",
"         e  h999sssssuuuuu<<Oydddddd;;;---iiii                  ",
"         e  hh99sssss-yy<<<O<ydddddd+     %ii                   ",
"         e   hh###6-----++<O<<yydddy+     %%                    ",
"              #3333777---+O<<<yyyyyy      X%                    ",
"              #3333777--+++<<<yyyddy      XX                    ",
"              #3333377-++++<$$yyyyyy      XX                    ",
"  t           #33333#+#+++<$$11yydyy     XXX                    ",
"  t            ######+#+++1$1$y1y1y$     XX                     ",
"  t              ####+++++$$$*11yyy1     %X                     ",
"   t                      ***11111111    XX                     ",
"    t                    **111111*111    %%                     ",
"                         *1111***$*111   XX                     ",
"                         1111***$$**11   X%                     ",
"                        1111***$$$***1   XX                     ",
"                        111**$$  $***11 XXX                     ",
"                        1***$     $**11 XX                      ",
"                         ..$       $..  XX                      ",
"                         11         11  XX                      ",
"                         $$         $$  XX                      ",
"                        ...         ...                         ",
"                                                                "
};
