/* XPM */
static char *NPC_Merchant_interacting_entry_71671266077[] = {
/* columns rows colors chars-per-pixel */
"64 64 44 1 ",
"  c None",
". c #52353D",
"X c #5A303C",
"o c #6D413F",
"O c #194454",
"+ c #185856",
"@ c #226D6B",
"# c #247771",
"$ c #5F4252",
"% c #8D4D43",
"& c #8D5143",
"* c #8C575E",
"= c #A55A48",
"- c #9E6B4F",
"; c #88635B",
": c #B1744E",
"> c #A97250",
", c #BC7B52",
"< c #806379",
"1 c #A3616A",
"2 c #2E957D",
"3 c #2F9B7C",
"4 c #CE875A",
"5 c #C9905F",
"6 c #FE8E63",
"7 c #FCA372",
"8 c #FBB775",
"9 c #2DB18B",
"0 c #50BFAB",
"q c #71A3B4",
"w c #51CF96",
"e c #2CBDFF",
"r c #76E0CD",
"t c #98B9B2",
"y c #CB8F83",
"u c #CCB392",
"i c #FFBD85",
"p c #FFBF93",
"a c #FFCB9E",
"s c #FFD39E",
"d c #E6CEAE",
"f c #B7E5F5",
"g c #FFE5C2",
"h c #CBFEF4",
/* pixels */
"                                                                ",
"                                                                ",
"                                                ppp             ",
"                                               ppppp            ",
"                                               4pppp            ",
"                                               444pp            ",
"                                               444%%            ",
"                                               444%%            ",
"                                               444%%            ",
"                                               :44%%            ",
"                                               %:4%%            ",
"                                               4::%%            ",
"                                              :::%%             ",
"                                              %::%%             ",
"                                              %%:%%             ",
"                                              %%%%X             ",
"                                              %%%XX             ",
"               888888888888888888              XXX              ",
"             555555588888888888888             XXX              ",
"           55555555555888888888888:            XX               ",
"          555&&&&&&&555:::::::::rrrrr          X%               ",
"          55&=======&55:::::::hhhhhrrrr        %%               ",
"         55&=========&55:::&&hhhhhhhhrrr       %%               ",
"         55&=========&55&&&&hhhhhhhhhhrr       :%               ",
"         55&=========&55&&&&hhhhhhhhhhrrr      ::               ",
"         55&=========&55&&&rhhhhhhhhh6rrr     %::               ",
"         55&=========&,,&&&rrrhhhhhh666rrr    %:                ",
"         ,,&&&&&oo===&,,&&&hhhhhhhh6666rrr    %%                ",
"          ,>&fffqo==&,,ooohhhhhhhh667770rrr   %%                ",
"          ,,&qqoo&&&,,,ooohhhhhh66aa77a0rrr   %%                ",
"           ,&fto&>,,,,ooohhhhr00777777700rrr  %%                ",
"            &tq&&>,,ooooohhorrrr7iiiii700rrr  :%                ",
"             tq&&>>oooo++h++rrrr6iiiii600  r  ::                ",
"            t   www9#####++rrrhh-6iii6200    %::                ",
"            t  hww999##++++++rhh--6--2200    %:                 ",
"            t  ww9w99##+++gg@@hhh66-22200    %%                 ",
"            t  w9w999##++gggd@dhh66++2200    %X                 ",
"               ww9999###dggdd@@hhuu6++00     XX                 ",
"               w99999###dddddu@dhddd++00     %%                 ",
"               9999999#ddddddu@dddddd00;6    sss                ",
"               999999#+ddddddu+dddddd+;;6666iiii                ",
"               999ss6ssuudhddy+ddddddd;;6666iiii                ",
"               999ss6ssuuuuu<<Oydddddd;;;---iiii                ",
"               h##sssss-yy<<<O<yyddddd+     %ii                 ",
"                #3336-----++<O<<yydddy+     %%                  ",
"                #3333777---+O<<<yyyyyy      X%                  ",
"                #3333777--+++<<<yyyddy      XX                  ",
"                #3333377-++++<$$yyyyyy      XX                  ",
"                 ######+#+++<$$11yydyy     XXX                  ",
"                   ####+++++1$1$y1y1y$     XX                   ",
"                            $$$*11yyy11    %X                   ",
"                           ****11111111    XX                   ",
"              t            **111111*1111   %%                   ",
"          tttt             *1111***$**11   XX                   ",
"                          11111***$$**11   X%                   ",
"                          1111***$$$***11  XX                   ",
"                          111**$$  $***11 XXX                   ",
"                          1***$     $**11 XX                    ",
"                           ..$       $..  XX                    ",
"                           11         11  XX                    ",
"           e               $$         $$  XX                    ",
"           e              ...         ...                       ",
"                                                                ",
"                                                                "
};
