/* XPM */
static char *NPC_Merchant_interacting_entry_81671266077[] = {
/* columns rows colors chars-per-pixel */
"64 64 44 1 ",
"  c None",
". c #52353D",
"X c #5A303C",
"o c #6D413F",
"O c #194454",
"+ c #185856",
"@ c #226D6B",
"# c #247771",
"$ c #5F4252",
"% c #8D4D43",
"& c #8D5143",
"* c #8C575E",
"= c #A55A48",
"- c #9E6B4F",
"; c #88635B",
": c #B1744E",
"> c #A97250",
", c #BC7B52",
"< c #806379",
"1 c #A3616A",
"2 c #2E957D",
"3 c #2F9B7C",
"4 c #CE875A",
"5 c #C9905F",
"6 c #FE8E63",
"7 c #FCA372",
"8 c #FBB775",
"9 c #2DB18B",
"0 c #50BFAB",
"q c #71A3B4",
"w c #51CF96",
"e c #2CBDFF",
"r c #76E0CD",
"t c #98B9B2",
"y c #CB8F83",
"u c #CCB392",
"i c #FFBD85",
"p c #FFBF93",
"a c #FFCB9E",
"s c #FFD39E",
"d c #E6CEAE",
"f c #B7E5F5",
"g c #FFE5C2",
"h c #CBFEF4",
/* pixels */
"                                              ppp               ",
"                                             ppppp              ",
"                                             4pppp              ",
"                                             444pp              ",
"                                             444%%              ",
"                                             444%%              ",
"                                             444%%              ",
"                                             :44%%              ",
"                                             %:4%%              ",
"                                             4::%%              ",
"                                             :::%%              ",
"                                             %::%%              ",
"                                             %%:%%              ",
"                                             %%%%X              ",
"                                             %%%XX              ",
"                888888888888888888            XXX               ",
"              555555588888888888888           XXX               ",
"            55555555555888888888rrrrrrr       XX                ",
"           555&&&&&&&555::::::hhhhhhrrrr      X%                ",
"           55&=======&55:::::hhhhhhhhhrrr     %%                ",
"          55&=========&55:::&hhhhhhhhhhrrr    %%                ",
"          55&=========&55&&&rhhhhhhhhhhrrr    :%                ",
"          55&=========&55&&&rrhhhhhhhh6rrrr   ::                ",
"          55&=========&55&&&rrrhhhhhh666rrr   ::                ",
"          55&=========&,,&hhhhhhhhh66666rrr   %:                ",
"          ,,&&&&&oo===&,,hhhhhhhhh6677770rrr  %%                ",
"           ,>&fffqo==&,,oooohhhr066aa77a0rrr  %%                ",
"           ,,&qqotttthh,ooooorr00777777700rrrr%%                ",
"            ,&fqo&>,,,,hhhooorrrr7iiiii700rrrr%%                ",
"             &fq&&>,,ooooohoorhhh6iiiii6000rr:%                 ",
"              fq&&>>oooo+++++rhhh-6iii62000  ::                 ",
"                 www9#####++rrhhh--6--22000  ::                 ",
"                www999##++++++hhh-66-22200   %:                 ",
"                ww9w99##+++gg@@hh666++2220   %%                 ",
"                w9w999##++gggd@hhuuu6++220   %X                 ",
"                ww9999###dggdd@@hdddd++;20   XX                 ",
"                w99999###dddddu@dddddd+;20   %%                 ",
"                9999999#ddddddu@dddddd+;;6   sss                ",
"                999999#+ddddddu+ddddddd;;666iiii                ",
"                999ii6iiuuddddy+ydddddd;;666iiii                ",
"                999ii6iiuuuuu<<Oyyddddd;;;--iiii                ",
"                 ##iiiii-yy<<<O<yyydddy+    %ii                 ",
"                 #3336-----++<O<<yyyyyy+    %%                  ",
"                 #3333777--t+O<<<yyyyyy     X%                  ",
"                 #3333777-t+++<<<yyyddy     XX                  ",
"                 #3333377t++++<$$yyyyyy     XX                  ",
"                  ######t#+++<$$11yydyy     XX                  ",
"                    ###t+++++1$1$y1y1y$    XXX                  ",
"                     t       $$$*11yyy11   XX                   ",
"                            ****11111111   X%                   ",
"                            **111111*1111  XX                   ",
"                            *1111***$**11  %%                   ",
"                           11111***$$**11  XX                   ",
"                           1111***$$$***11 %X                   ",
"                           111**$$  $***11 XX                   ",
"                           1***$     $**11 XX                   ",
"                            ..$       $..  XX                   ",
"                            11         11  XX                   ",
"            e               $$         $$  XX                   ",
"                           ...         ... XX                   ",
"                                                                ",
"                                                                ",
"                                                                ",
"                                                                "
};
