/* XPM */
static char *altar_224x288___standing_on_grass1671262876[] = {
/* columns rows colors chars-per-pixel */
"64 64 122 2 ",
"   c None",
".  c #70574B",
"X  c #775B4B",
"o  c #7A5C4A",
"O  c #76604E",
"+  c #78654B",
"@  c #7D6A4F",
"#  c #7B6250",
"$  c #825A42",
"%  c #805F48",
"&  c #856347",
"*  c #86654B",
"=  c #8A634A",
"-  c #836C4E",
";  c #8D6A4C",
":  c #906D4E",
">  c #8F714C",
",  c #93754E",
"<  c #98774D",
"1  c #8A6051",
"2  c #846F55",
"3  c #8C6C51",
"4  c #906450",
"5  c #926D52",
"6  c #966F5B",
"7  c #827055",
"8  c #8C7353",
"9  c #8E7559",
"0  c #8F7959",
"q  c #937352",
"w  c #997655",
"e  c #957B53",
"r  c #9A7D54",
"t  c #967059",
"y  c #98705A",
"u  c #947B5A",
"i  c #9C7D5B",
"p  c #9F7C62",
"a  c #A17D63",
"s  c #9D8156",
"d  c #9D835B",
"f  c #A18457",
"g  c #A2865A",
"h  c #A68A5C",
"j  c #A88C5D",
"k  c #AA915F",
"l  c #9F8962",
"z  c #A38162",
"x  c #AC8165",
"c  c #A48B63",
"v  c #AB8C64",
"b  c #A28469",
"n  c #B18266",
"m  c #B28E65",
"M  c #AD9365",
"N  c #A5916B",
"B  c #AD946A",
"V  c #B19665",
"C  c #B49965",
"Z  c #BA9D65",
"A  c #B2966A",
"S  c #BC956E",
"D  c #B59B6B",
"F  c #BA9D6C",
"G  c #B59571",
"H  c #B49B71",
"J  c #BB9C75",
"K  c #BE9F79",
"L  c #BDA067",
"P  c #B6A06C",
"I  c #BBA16D",
"U  c #BCA373",
"Y  c #BEA47B",
"T  c #C19D75",
"R  c #C3A56B",
"E  c #C7A86C",
"W  c #C3A676",
"Q  c #C3A973",
"!  c #CAAD72",
"~  c #C2A57A",
"^  c #C9A67C",
"/  c #C5AC7B",
"(  c #CBAC7C",
")  c #D1AF7E",
"_  c #CFB276",
"`  c #C6B17C",
"'  c #CAB17D",
"]  c #DBBA77",
"[  c #D2B37E",
"{  c #D5B87E",
"}  c #C7AA81",
"|  c #CBAE81",
" . c #D1AE84",
".. c #C6B180",
"X. c #CCB482",
"o. c #CEB884",
"O. c #D3B484",
"+. c #D4BA86",
"@. c #D9BD87",
"#. c #D5B688",
"$. c #D6BB89",
"%. c #D9BE8B",
"&. c #DCC080",
"*. c #D7C18B",
"=. c #DBC48D",
"-. c #DEC88F",
";. c #DDC790",
":. c #DDC890",
">. c #E1C58F",
",. c #E0C491",
"<. c #E2CC93",
"1. c #E9CE95",
"2. c #E5D195",
"3. c #E9D496",
"4. c #E9D897",
"5. c #ECD599",
"6. c #ECDB99",
"7. c #F0DC9D",
"8. c #F2E19D",
"9. c #F6E0A1",
"0. c #F8E6A1",
"q. c #FDEAA5",
/* pixels */
"                          6.                                                              4.4.                                  ",
"                        6.0.4.                                                            0.q.4.                                ",
"                      6.8.6.8.4.                                                        q.6.4.q.4.                              ",
"                      ' 3.4.6.8._                                                     &.8.6.6.2.j                               ",
"                      e Q 7.2.]                                                       E &.6.2.j >                               ",
"                      g > U ! L                                                       R L _ N e s                               ",
"                      g e h h d !                                                     C @ L s s e                               ",
"                      s e k l M { $.%.=.:.:.:.:.=.$.*.@.*.^ #.-.;.:.:.;.-.:.:.:.-.:.-._ d C s s s                               ",
"                      g e d E L { +.+.=.:.-.;.;.:.=.$.$.@.O.$.-.:.:.:.=.=.:.-.;.:.;.:.! L E e s e                               ",
"                      f e g E Z { $.=.>.:.:.-.:.;.;.-.=.=.+.#.*.-.:.-.$.-.;.;.:.:.:.:.! Z R e s r                               ",
"                      d e g R C ' *.:.:.:.:.;.:.;.;.:.:.-.$.$.-.=.:.;.=.-.:.:.:.:.:.:.! Z R e s r                               ",
"                      d e h R V / =.:.:.-.;.:.;.:.;.:.:.=.$.=.;.:.:.:.:.:.:.:.:.:.:.-.Q L I s s e                               ",
"                      s e g E Z ' *.-.:.:.:.;.-.:.:.:.:.:.=.-.;.:.:.;.;.;.:.-.:.:.:.:.P Z I e s u                               ",
"                    B d e d I V ` $.$.=.;.:.=.:.-.;.;.-.=.#.=.;.:.:.;.;.;.:.:.:.-.:.;.! L E e e c /                             ",
"                  X.` - e d P C ` -.=.=.=.*.-.;.:.;.-.=.%.@.$.;.:.;.:.;.:.-.-.;.:.:.-.P Z P s 8 8 @./                           ",
"                  -.o.l + d L d o.;.:.;.=.=.:.-.:.:.;.;.%.#.@.=.;.:.:.-.-.=.;.;.;.:.-.U h B 8 @ U +.<.+.                        ",
"                <.@.$.@.l 7 d / :.;.;.:.;.;.;.;.;.:.-.=.#.%.#.@.=.;.:.=.;.=.=.:.;.;.:.+.A c @ U =.$.$.5.                        ",
"              <.$.$.$.=.*.N / =.X.;.:.:.:.;.;.-.;.=.-.#.@.#.%.#.%.-.:.-.:.:.=.*.;.:.+.' =.B U *.+.$.@.$.,.                      ",
"          @.>.@.*.+.:.:.-.,.*.=.=.o.;.;.;.;.;.:.+.%.%.#.%.#.#.#.$.;.*.-.;.:.=.*.:.=.X.=.:.;.*.$.$.$.$.$.$.-.                    ",
"        %.5.*.,.;.*.*.:.-.:.-.:.:.=.` :.:.;.:.=.%.=.#.#.#.#.%. .$.#.-.=.;.:.=.=.*.o.=.;.;.;.-.;.*.+.$.@.@.$.>.                  ",
"        %.-.-.:.:.:.=.:.;.-.;.:.;.=.$.o.-.:.;.=.$.#.%.#.=.*.$.o.$.#.#.,.-.=.:.+.X.:.:.:.:.;.:.-.$.@.$.+.+.$.1.=.                ",
"        =.<.:.-.:.:.:.:.:.:.:.-.;.-.:.=.o.*.-.=.$.$.#.%.=.=.*.*.#.#.%.#.>.*.$.o.:.;.-.;.;.:.-.$.+.$.@.=.=.=.3.                  ",
"        =.2.;.:.:.:.:.:.:.:.:.:.;.:.-.:.+.O.%.O.$.#.$.=.*.O.$.-.=.#.%.$.=.=.o.:.;.:.=.-.:.;.=.=.-.*.*.:.-.;.4.                  ",
"        =.<.:.:.-.:.;.-.:.;.;.:.;.-.=.=.@.;.#.$.#.%.=.-.%.:.:.=.=.$.#.#.$.$.-.*.:.;.=.;.:.=.=.:.;.=.;.;.-.:.5.                  ",
"        -.<.-.:.:.-.:.:.;.;.;.;.;.:.o.*.%.%.#.O.%.;.%.=.:.:.;.:.=.=.%.#.#.#.=.=.@.*.-.-.:.=.*.-.;.;.:.:.:.<.5.                  ",
"        *.>.-.:.;.:.;.;.;.;.;.-.:.=.@.%. . .%.%.;.;.=.;.:.-.:.:.;.%.-.=.%. .#.;.>.O.-.-.:.=.:.:.:.;.:.;.:.,.5.                  ",
"        *.>.-.-.-.;.:.:.-.-.:.:.*.@.=.=.@. .%.*.*.=.;.;.:.:.:.:.:.;.=.=.=.%.$.%.=.=.@.-.:.:.:.:.=.*.:.:.:.:.5.                  ",
"        ^ O.( #.O.$.%.$.=.4.*.' ) =.#.O.=.*.+.,.=.;.;.;.;.:.-.;.;.:.=.+.-.#.;. . .%.=.( +.,.2.*.%.$.$.=.$.@.@.                  ",
"        $.%.=.-.=.$.*.-.6.6.2.@.( O.-.#.O.$.#.,.:.<.-.-.;.;.:.:.:.-.,.<.+.[ #.O.O.%.[ %.:.6.4.2.=.;.;.$.+.+.<.                  ",
"        =.,.:.:.,.:.-.4.6.4.4.4.=.[ O.#.#.#.%.%.:.:.-.-.:.;.:.:.:.,.<.%.O.#.#.$.=.) O.<.6.4.4.4.;.=.:.=.-.*.1.                  ",
"        *.<.:.:.:.<...` 6.6.6.2.' -.[ O.%.%.#.#.+.=.,.-.;.:.-.:.<.<.%.#.#.#.#.%.' +.+.o.6.6.4.4.H *.:.:.:.:.1.                  ",
"        -.<.:.-.:.<.X.o ' 8.2.k Q ,.=.=.=.#.%.#.$.#.>.2.:.;.;.:.<.*.%.#.=.#.@.#.=.;.=.h ` 8.4.M 5 -.:.;.:.:.5.                  ",
"        =.2.-.:.-.2.' = ; / V < ` :.;.:.@.@.#.#.$.#.@.>.<.:.,.<.+.+.#.@.#.%.O.=.:.:.;.V r ` A $ g %.-.;.:.:.5.                  ",
"        =.2.;.;.-.:.X.; , ; g f ` :.;.;.=.#.@.$.$. .=.O.-.<.<.=.@.@.#.=.@. .=.,.;.:.:.M g s : : i =.:.:.:.:.6.                  ",
"        =.<.;.;.:.:.X.; 5 w j f ` :.;.;.;.$.^ %.%.%.O. .[ =.@.%.$. .#.#.[ ' %.:.;.:.:.M g j w ; d =.:.-.:.:.5.                  ",
"        =.2.;.-.;.:.X.; , w h s ` <.;.:.%.o.:.*.@.#. .@.%.^  .;.O.%.=.O.=.-.X.=.:.:.:.V g g , ; d ;.:.;.-.,.5.                  ",
"        *.>.:.:.-.:.o.- 5 q j f / :.;.*.+.:.;.:.#.O.@.$.#.#.#.#.#.;.$.*.:.:.=.X.=.:.;.M g g q ; i ;.:.:.=.=.6.                  ",
"        J +.=.=.*.:.X.; 8 w j s / 2.$.X.:.-.:.;.;.#.=.#.%.#.%.#.%.@.+.-.:.:.:.:.o.=.:.M g d 5 : i :.:.=.+.*.O.                  ",
"        q D +.-.=.<.X.* q w j r ` =.` ;.;.:.-.=.$.$.#.%.#.@.#.#.#.$.=.-.:.:.:.:.;.X.=.V g g q ; i =.%.$.%./ v                   ",
"          q D -.:.:.X.* ; q j s U o.$.*.-.:.;.-.%.$.@.O.O.%.@.[ =.;.=.;.:.:.:.;.:.=.X.j h g : : u +.+.%.F g q                   ",
"            e D *.<./ * ; w j s J *.$.:.=.:.:.:.*.$.+.$.' O.[ =.:.:.;.:.:.-.:.;.:.;.*.c g d : : u *.*.I V w                     ",
"              q A $./ o q 8 g s U =.:.-.:.:.:.:.$.+.$.$.*.( +.:.;.:.:.:.;.;.-.-.:.:.=.c g i 3 : i -.P h s                       ",
"                e F ( 2 X 8 d 8 Y <.-.-.:.;.:.=.*.=.+.*.@.+.-.;.:.:.;.:.:.-.*.-.-.=.=.c 8 0 + o N U D d                         ",
"                  q B U 2 X u B *.-.-.-.:.;.;.*.-.;.=.+.@.+.;.;.;.:.;.:.;.-.:.-.=.+.@.` l 8 . l U M e                           ",
"                    w A Y 0 V ` X.:.:.:.;.:.:.*.=.-.;.=.@.O.=.:.:.-.:.;.:.-.:.-.+.$.$.' / i l U V ;                             ",
"                      e L Y ` ` o.=.:.:.:.:.-.-.=.-.;.;.=.O.$.:.:.:.;.:.;.;.-.-.=.*.$.` / / U k ,                               ",
"                        s V Y ' *.-.:.:.:.;.-.;.-.*.;.;.;.*.-.:.;.;.;.:.;.:.:.:.:.=.+./ / I M ,                                 ",
"                          e M ` *.:.:.;.;.-.;.;.=.=.;.-.=.$.-.>.:.-.;.;.:.:.:.:.-.*.@.` U k e                                   ",
"                            i v X.,.:.;.;.:.:.:.:.:.:.:.-.( +.*.=.:.-.-.;.-.-.=.$.$.%.U M q                                     ",
"                              w v X.%.;.#.O.O.O.O.O.O.O.O.^ ^ #.$.$.$.#.O.$.#.$.$. .G g 5                                       ",
"                                b <.:.:.+.O.=.*.*.=.=.$.%.:.-.-.:.;.:.=.+.:.;.;.:.=.G &                                         ",
"                                  6.:.:.-.=.-.-.:.:.:.=.=.<.:.,.:.,.<.:.=.:.:.:.:.2.o.                                          ",
"                                  ;.=.=.$.%.<.<.<.:.<.=.m O.O.O.+.| X.W ( <.=.=.=.<.O.                                          ",
"                                  x a a p n v v N v v z 6 5 % 6 a y y 1 4 w i a a x x                                           ",
"                                  ,.#.#.#.| ~ S v T S } $.@.( | %.$.$.+.( ~ $.#.$.;.#.                                          ",
"                                  5.2.2.2.2.2.2.=.3.3.<.<.2.=.<.2.2.2.2.<.;.2.<.<.5.2.                                          ",
"                                  ^ Y Y Y Y Y Y S K Y Y Y Y J U Y Y / ~ U Y +.o.+.$.X.                                          ",
"                                  #.X.~ ~ o.| | X.o.Y } | | | | ' U X.} | } K G J ^ ^                                           ",
"                                  9.5.<.3.6.2.3.7.;.;.2.7.5.2.5.2.,.4.4.5.2.2.;.6.2.+.                                          ",
"                                  *.*.| X.;.} o.|   1 ..=.$.o.+.+.J o.$.=.o.#.} *.`                                             ",
"                                  } } K K } K K } :.:.~  .^ ~ } ~ ~ K ^ J J K J   Y                                             ",
"                                  q.2.<.2.1.<.2.3.5.5.2.5.,.2.3.2.2.<.5.O.<.2.<.2.2.5.                                          ",
"                                  $.:.<.3.<.<.:.2.<.:.:.;.=.:.<.:.:.;.;.} :.:.:.:.:.<.                                          ",
"                                    %.|   T       | X.#.| ~ $.} o. .} / K O.O.} X.X.o.                                          "
};
