/* XPM */
static char *result[] = {
/* columns rows colors chars-per-pixel */
"64 64 18 1 ",
"  c #83583B",
". c #8C7521",
"X c #8B733D",
"o c #9E8322",
"O c #A88F25",
"+ c #A29E2D",
"@ c #B1AC24",
"# c #C0A126",
"$ c #C3AE2C",
"% c #C3BD28",
"& c #DAC62C",
"* c #ABE54C",
"= c #C0EC41",
"- c #E5FF92",
"; c #E7FBAE",
": c #ADBFC2",
"> c white",
", c None",
/* pixels */
",,,,,,,,,,,,,,,,,,,,,,,,,,,,,,,,,,,,,,,,,,,,,,,,,,,,,,,,,,,,,,,,",
",,,,,,,,,,,,,,,,,,,,,,,,,,,,,,,,,,,,,,,,,,,,,,,,,,,,,,,,,,,,,,,,",
",,,,,,,,,,,,,,,,,,,,,,,,,,,,,,,,,,,,,,,,,,,,,,,,,,,,,,,,,,,,,,,,",
",,,,,,,,,,,,,,,,,,,,,,,,,,,,,,,,,,,,,,,,,,,,,,,,,,,,,,,,,,,,,,,,",
",,,,,,,,,,,,,,,,,,,,,,,,,,,,,,,,,,,,,,,,,,,,,,,,,,,,,,,,,,,,,,,,",
",,,,,,,,,,,,,,,,,,,,,,,,,,,,,,,,,,,,,,,,,,,,,,,,,,,,,,,,,,,,,,,,",
",,,,,,,,,,,,,,,,,,,,,,,,,,,,,,,,,,,,,,,,,,,,,,,,,,,,,,,,,,,,,,,,",
",,,,,,,,,,,,,,,,,,,,,,,,,,,,,,,,,,,,,,,,,,,,,,,,,,,,,,,,,,,,,,,,",
",,,,,,,,,,,,,,,,,,,,,,,,,,,,,,,,,,,,,,,,,,,,,,,,,,,,,,,,,,,,,,,,",
",,,,,,,,,,,,,,,,,,,,,,,,,,,,,,,,,,,,,,,,,,,,,,,,,,,,,,,,,,,,,,,,",
",,,,,,,,,,,,,,,,,,,,,,,,,,,,,,,,,,,,,,,,,,,,,,,,,,,,,,,,,,,,,,,,",
",,,,,,,,,,,,,,,,,,,,,>>,,,,,,,,,,>>>>,,,,,,,,,,,,,,,,,,,,,,,,,,,",
",,,,,,,,,,,,,,,,,,,,>>>>,,,,,,,,>>>>>>,,,,,,,,,,,,,,,,,,,,,,,,,,",
",,,,,,,,,,,,,,,,,,,,>>>>,,,,,,,>>>>>>>,,,,,,,,,,,,,,,,,,,,,,,,,,",
",,,,,,,,,,,,,,,,,,,,,>>,,,,,,,,>>>>>>>,,,,,,,,,,,,,,,,,,,,,,,,,,",
",,,,,,,,,,,,,,,,,,,,,,,,,,,,,,,>>>>>>>,,,,,,,,,,,,,,,,,,,,,,,,,,",
",,,,,,,,,,,,,,,,,,,,,,,,,,,,,,,,>>>>>,,,,,,,,,,,,,,,,,,,,,,,,,,,",
",,,,,,,,,,,,,,,,,,,,,,,,,,,,,,,,,,,,,,,,,,,,,,,,,,,,,,,,,,,,,,,,",
",,,,,,,,,,,,,,,,,,,,,,,,,,,,,,,,,,,,,,,,,,,,,,,,,,,,,,,,,,,,,,,,",
",,,,,,,,,,,,,,,,,,,,,,>>,,,,,,,,,,,,,,,,,,,,,,,,,,,,,,,,,,,,,,,,",
",,,,,,,,,,,,,,,,,,,,>>:>>,,,,,,,,,,,,,,,,,,,,,,,,,,,,,,,,,,,,,,,",
",,,,,,,,,,,,,,,,,,,>>>:>>>,,,,,,,,,,,,,,,,,,,,,,,,,,,,,,,,,,,,,,",
",,,,,,,,,,,,,,,,,,>>:>>>>>>,,,,,,,,>>,,,,,,,,,,,,,,,,,,,,,,,,,,,",
",,,,,,,,,,,,,,,,,,>>:>>>>,>,,,,,,>>>>>,,,,,,,,,,,,,,,,,,,,,,,,,,",
",,,,,,,,,,,,,,,,,,>>>>>>,,,>,,,>>>>>>>>,,,,,,,,,,,,,,,,,,,,,,,,,",
",,,,,,,,,,,,,,,,,,,>>>>>,,,,,,,,>>>>>>>,,,,,,,,,,,,,,,,,,,,,,,,,",
",,,,,,,,,,,,,,,,,,,,,>>,,,,,,,,,>>>>>>>,,,,,,,,,,,,,,,,,,,,,,,,,",
",,,,,,,,,,,,,,,,,,,,,,>,,,,,,,,,>>>>>>,,,,,,,,,,,,,,,,,,,,,,,,,,",
",,,,,,,,,,,,,,,,,,,,,,,,,,,,,,,,,>>,,,,,,,,,,,,,,,,,,,,,,,,,,,,,",
",,,,,,,,,,,,,,,,,,,,,,,,,,,,,,,,,>,,,,,,,,,,,,,,,,,,,,,,,,,,,,,,",
",,,,,,,,,,,,,,,,,,,,,,,,,>>>>>>>>>,,,,,,,,,,,,,,,,,,,,,,,,,,,,,,",
",,,,,,,,,,,,,,,,,,,,,,>>>$$$$$$$$$>>>,,,,,,,,,,,,,,,,,,,,,,,,,,,",
",,,,,,,,,,,,,,,,,,,,>>$$$>>>>-----$$$>>,,,,,,,,,,,,,,,,,,,,,,,,,",
",,,,,,,,,,,,,,,,,,,>>$>>>>>----->>===$$;,,,,,,,,,,,,,,,,,,,,,,,,",
",,,,,,,,,,,,,,,,,,>>&>>>>>>=--->>======&;,,,,,,,,,,,,,,,,,,,,,,,",
",,,,,,,,,,,,,,,,,,>&>>>>>>>>==>>>======&>,,,,,,,,,,,,,,,,,,,,,,,",
",,,,,,,,,,,,,,,,,>>>>>&&>>>>>>>>>-=--===&>,,,,,,,,,,,,,,,,,,,,,,",
",,,,,,,,,,,,,,,,,>&>>&=>>>>>>>>>>>===&==&;,,,,,,,,,,,,,,,,,,,,,,",
",,,,,,,,,,,,,,,,,>=>&==>>>>>>>>>>>>===&===,,,,,,,,,,,,,,,,,,,,,,",
",,,,,,,,,,,,,,,,>>=&&==>>>>>>>>>>>>&&=>&=@,,,,,,,,,,,,,,,,,,,,,,",
",,,,,,,,,,,,,,,,,>=&&=&>>>>>>>>>>>>>&&>&=@,,,,,,,,,,,,,,,,,,,,,,",
",,,,,,,,,,,,,,,,,>>&&=&>>>>>>>>>>>>>&>>>=.,,,,,,,,,,,,,,,,,,,,,,",
",,,,,,,,,,,,,,,,,>>>=&&$>>>>>>>>>>>$>>>>>.,,,,,,,,,,,,,,,,,,,,,,",
",,,,,,,,,,,,,,,,,>>>>==oo>>>>>>>>>>>>>>>>>>,,,,,,,,,,,,,,,,,,,,,",
",,,,,,,,,,,,,,,,,,>>>#===ooooooooo>>>>>>>,,,,,,,,,,,,,,,,,,,,,,,",
",,,,,,,,,,,,,,,,,,>>>>>>>>>;>>>>>>###>>>.,,,,,,,,,,,,,,,,,,,,,,,",
",,,,,,,,,,,,,,,,,,,>>>>>>>>>>>%%%%####>.,,,,,,,,,,,,,,,,,,,,,,,,",
",,,,,,,,,,,,,,,,,,,,>>>>>>>>>>%%%%####>,,,,,,,,,,,,,,,,,,,,,,,,,",
",,,,,,,,,,,,,,,,,,,,,>>>>>>>>>>%%*##  ,,,,,,,,,,,,,,,,,,,,,,,,,,",
",,,,,,,,,,,,,,,,,,,, XX >>>>>>>%*   XX ,,,,,,,,,,,,,,,,,,,,,,,,,",
",,,,,,,,,,,,,,,,,,, ++XXXX >>>>O XXXX++ ,,,,,,,,,,,,,,,,,,,,,,,,",
",,,,,,,,,,,,,,,,,, ++XXXXX >>>>X XXXXX++ ,,,,,,,,,,,,,,,,,,,,,,,",
",,,,,,,,,,,,,,,,,,.++XXX  >>>>>++  XXX++.,,,,,,,,,,,,,,,,,,,,,,,",
",,,,,,,,,,,,,,,,,,.%++XX>>>>>>>%+++XX++%.,,,,,,,,,,,,,,,,,,,,,,,",
",,,,,,,,,,,,,,,,,,,.%>>>>>>>>>>%%++++%%.,,,,,,,,,,,,,,,,,,,,,,,,",
",,,,,,,,,,,,,,,,,,,,>>>>>>>>>>>>>+%*%..,,,,,,,,,,,,,,,,,,,,,,,,,",
",,,,,,,,,,,,,,,,,,,,,,>>>>>>>>>>>>>>.,,,,,,,,,,,,,,,,,,,,,,,,,,,",
",,,,,,,,,,,,,,,,,,,,,,,,,>>>>>>>>>,,,,,,,,,,,,,,,,,,,,,,,,,,,,,,",
",,,,,,,,,,,,,,,,,,,,,,,,,,,,,,,,,,,,,,,,,,,,,,,,,,,,,,,,,,,,,,,,",
",,,,,,,,,,,,,,,,,,,,,,,,,,,,,,,,,,,,,,,,,,,,,,,,,,,,,,,,,,,,,,,,",
",,,,,,,,,,,,,,,,,,,,,,,,,,,,,,,,,,,,,,,,,,,,,,,,,,,,,,,,,,,,,,,,",
",,,,,,,,,,,,,,,,,,,,,,,,,,,,,,,,,,,,,,,,,,,,,,,,,,,,,,,,,,,,,,,,",
",,,,,,,,,,,,,,,,,,,,,,,,,,,,,,,,,,,,,,,,,,,,,,,,,,,,,,,,,,,,,,,,",
",,,,,,,,,,,,,,,,,,,,,,,,,,,,,,,,,,,,,,,,,,,,,,,,,,,,,,,,,,,,,,,,"
};
