/* XPM */
static char *result[] = {
/* columns rows colors chars-per-pixel */
"64 64 13 1 ",
"  c #48596F",
". c #C49437",
"X c #ECF54D",
"o c #566883",
"O c #5A6F8B",
"+ c #617F9C",
"@ c #668DAB",
"# c #6C98B9",
"$ c #7DADD3",
"% c #A4E2C2",
"& c #93CEFC",
"* c #FEFFE7",
"= c None",
/* pixels */
"================================================================",
"================================================================",
"================================================================",
"================================================================",
"================================================================",
"================================================================",
"================================================================",
"================================================================",
"================================================================",
"================================================================",
"================================================================",
"================================================================",
"================================================================",
"================================================================",
"================================================================",
"================================================================",
"================================================================",
"================================================================",
"================================================================",
"================================================================",
"================================================================",
"================================================================",
"================================================================",
"================================================================",
"================================================================",
"================================================================",
"================================================================",
"================================================================",
"================================================================",
"================================================================",
"================================================================",
"================================================================",
"================================================================",
"================================================================",
"================================================================",
"================================================================",
"================================================================",
"================================================================",
"================================================================",
"=========================&&&&&$$================================",
"========================&&&&$$$$$===============================",
"=======================&@@ooo@@@@@==============================",
"=======================$@oooo O@@@@=============================",
"=======================@@o=== O@@@@@============================",
"=======================@o===  OO@@@@@===========================",
"=======================**=    OO@@@@@===========================",
"======================*..   @@OO@@@@@@==========================",
"======================X.OO +@@@O@@@@@@@=========================",
"=======================OOOO++@@@@@@@@@@=========================",
"=======================OOOO++@@@@@@@@@@@========================",
"======================= OOO++@@@@@@@@@@@========================",
"=======================  OO+++@@@@@@@@@++=======================",
"=======================   OO++%@@##@@@%++=======================",
"=======================    OO+++     ++++=======================",
"========================   OO+++@$$$@++++=======================",
"==========================  OO++++++++++========================",
"================================================================",
"================================================================",
"================================================================",
"================================================================",
"================================================================",
"================================================================",
"================================================================",
"================================================================"
};
