/* XPM */
static char *result[] = {
/* columns rows colors chars-per-pixel */
"63 64 20 1 ",
"  c #535555",
". c #5B6247",
"X c #636259",
"o c #706453",
"O c #716956",
"+ c #717354",
"@ c #74745A",
"# c #78715E",
"$ c #616764",
"% c #9A7D55",
"& c #898265",
"* c #8B8C61",
"= c #9B9067",
"- c #AEA06B",
"; c #BFAD7C",
": c #C5B579",
"> c #DAC384",
", c #D4C58E",
"< c #E4CD88",
"1 c None",
/* pixels */
"111111111111111111111111111111111111111111111111111111111111111",
"111111111111111111111111111111111111111111111111111111111111111",
"1111111111111>>>>>>>>>>>>>>>>>>>>>>>>>>>>>>>>>>>>>1111111111111",
"111111111111>>>>>>>>>>>>>>>>>>>>>>>>>>>>>>>>>>>>>>>111111111111",
"111111111111>>>>>>>>>>>>>>>>>>>>>>>>>>>>>>>>>>>>>>>111111111111",
"111111111111>>>>>>>>>>>>>>>>>>>>>>>>>>>>>>>>>>>>>>>111111111111",
"111111111111>>>>>>>>>>>>>>>>>>>>>>>>>>>>>>>>>>>>>>>111111111111",
"111111111111>>>>>>>>>>>>>>>>>>>>>>>>>>>>>>>>>>>>>>>111111111111",
"111111111111>>>>>>>>>>>>>>>>>>>>>>>>>>>>>>>>>>>>>>>111111111111",
"111111111111>>>>>>>>>>>>>>>>>>>>>>>>>>>>>>>>>>>>>>>111111111111",
"111111111111>>>>>>>>>>>>>>>>>>>>>>>>>>>>>>>>>>>>>>>111111111111",
"111111111111>>>>>>>>>>>>>>>>>>>>>>>>>>>>>>>>>>>>>>>111111111111",
"111111111111>>>>>>>>>>>>>>>>>>>>>>>>>>>>>>>>>>>>>>>111111111111",
"111111111111>>>>>>>>>>>>>>>>>>>>>>>>>>>>>>>>>>>>>>>111111111111",
"111111111111>>>>>>>>>>>>>>>>>>>>>>>>>>>>>>>>>>>>>>>111111111111",
"111111111111>>>>>>>>>>>>>>>>>>>>>>>>>>>>>>>>>>>>>>>111111111111",
"111111111111<>>>>>>>>>>>>>>>>>>>>>>>>>>>>>>>>>>>>>>111111111111",
"111111111111<>>>>>>>>>>>>>>>>>>>>>>>>>>>>>>>>>>>>>>111111111111",
"111111111111<<>>>>>>>>>>>>>>>>>>>>>>>>>>>>>>>>>>>>>111111111111",
"111111111111<<<<<>>>>>>>>>>>>>>>>>>>>>>>>>>>>>>>>>>111111111111",
"111111111111<<<>>>>>>>>>>>>>>>>>>>>>>>>>>>>>>>>>>>>111111111111",
"111111111111<<<<>>>>>>>>>>>>>>>>>>>>;;>>>>>>>>>>>>>111111111111",
"111111111111<<<<<>>>>>>>>>>>>>>>>>>>>>;;;;>>>>>>>>>111111111111",
"111111111111%<<<<<<<<<>>>>>>>><<>>>>>>;<<<<<>>>>>>%111111111111",
"111111111111%%%%%%%%%%%%%%%%%%%%%%%%%%O%%%%%%%%%%%%111111111111",
"111111111111%%%%%%%%%%%%%%%%%%%%%%%%%%O%%%%%%%%%%%%111111111111",
"111111111111%%%%%%%%%%%%%%%%%%%%%%%%%O %%%%%%%%%%%%111111111111",
"111111111111 %%%%%%%%%%%%%%%%%%%%%%OO  %%%%%%%%%%% 111111111111",
"1111111111111                                     1111111111111",
"111111111111111   ............................  111111111111111",
"1111111111111111    ........................   1111111111111111",
"11111111111111111@@@@@@@@@@@@@@@@@@@@@@@@@@@@@11111111111111111",
"11111111111111111  ....   ...... .......      11111111111111111",
"11111111111111111@@@@@@@@@@@@@@@@@@@@@@@@@@@@@11111111111111111",
"111111111111====+@@@@@@@@@@@@@@@@@@@@@@@@@@@@*+====111111111111",
"11111111111=====+*@@@@@@@@@@@@   @@@@@@@@@@@@*+=====11111111111",
"1111111111======+*@@@@@@@@@@@     @@@@@@@@@@@*+======1111111111",
"111111111=======+*@@@****@@@       *@@****@@@*+=======111111111",
"111111111=======+*@@    *@@* ooooo *@@*    @@*+=======111111111",
"111111111=======+*@      ** ooooooo **      @*+=======111111111",
"111111111=======+*@ $$$$ ** ooooooo ** $$$$ @*+=======111111111",
"111111::::::::::=** $$$$ ** ooooooo ** $$$$ **=::::::::::111111",
"111111::::::::::=** $$$$ **         ** $$$$ **=::::::::::111111",
"111111::::::::::=** $$$$ ** ooooooo ** $$$$ **=::::::::::111111",
"111111,:::::::::=** $$$$ ** ooooooo ** $$$$ **=:::::::::,111111",
"111111,,,,,,::::=** $$$$ ** ooooooo ** $$$$ **=::::,,,,,,111111",
"111111XXXXXXXXXX=** $$$$ ** ooooooo ** $$$$ **=XXXXXXXXXX111111",
"111111XXXXXXXXXX=** $$$$ **         ** $$$$ **=XXXXXXXXXX111111",
"111111XXX========** $$$$ **         ** $$$$ **========XXX111111",
"111111X1X:::::::-** $$$$ ** ======= ** $$$$ **-:::::::X1X111111",
"111111X11:::::::-** $$$$ ** ======= ** $$$$ **-:::::::11X111111",
"111111111:::::::::::::::::::::::::::::::::::::::::::::111111111",
"111111111&:::::::::::::::::::::::::::::::::::::::::::&111111111",
"111111111&&:::::::::::::::::::::::::::::::::::::::,,&&111111111",
"111111111&&&:::::::::::::::::::::::::::::::::::::,,&&&111111111",
"111111111&&&&:::#######:::::::::::::::::::::,:::,,&&&&111111111",
"111111111&&&&XXX=======XXXXXXXXXXXXXXXXXXXXXXXXXXX&&&&111111111",
"111111111&&&&XXXXXXXXXXXXXXXXXXXXXXXXXXXXXXXXXXXXX&1&&111111111",
"111111111&1&&XXXXXXXXX1XXX1XXX1XXXXXXXXXXXXXXXXXXX&11&111111111",
"111111111111&1X1XX1X1X1X1X11X11X1XXXXXXXXX1X1XXX1X1&11111111111",
"11111111111&1111XX111111111111X11X1XX1XX1X111XXX111&11111111111",
"11111111111111111111111111111111111XX1XX11111111111111111111111",
"111111111111111111111111111111111111111111111111111111111111111",
"111111111111111111111111111111111111111111111111111111111111111"
};
