/* XPM */
static char *c3ad68b9319d412a8bc193bd179f633cy5F2YvpaOaINlmsD[] = {
/* columns rows colors chars-per-pixel */
"64 64 78 1 ",
"  c None",
". c #5F2621",
"X c #5E2C24",
"o c #762F24",
"O c #763126",
"+ c #7C3325",
"@ c #733428",
"# c #7A3729",
"$ c #7D3A2B",
"% c #843624",
"& c #873824",
"* c #8C3C26",
"= c #833D2B",
"- c #8A3F29",
"; c #903F27",
": c #86412D",
"> c #8C442D",
", c #954327",
"< c #93452A",
"1 c #99462A",
"2 c #95492C",
"3 c #9B4A2B",
"4 c #9F502E",
"5 c #8E4730",
"6 c #8E4930",
"7 c #914731",
"8 c #944B32",
"9 c #984D32",
"0 c #975134",
"q c #9B5436",
"w c #9F5837",
"e c #9B5638",
"r c #9E5A3A",
"t c #A24D2B",
"y c #A5522C",
"u c #A9552C",
"i c #AD5A2D",
"p c #B25D2D",
"a c #A35535",
"s c #A65C36",
"d c #A95E36",
"f c #A25738",
"g c #A35B3A",
"h c #A85F3B",
"j c #B6612E",
"k c #B8632F",
"l c #AB6037",
"z c #A5613E",
"x c #AB623B",
"c c #B66230",
"v c #BA6631",
"b c #BD6934",
"n c #B46A3D",
"m c #C16D36",
"M c #C57037",
"N c #C57138",
"B c #CA763A",
"V c #CE7A3D",
"C c #D07D3F",
"Z c #A66340",
"A c #AA6641",
"S c #AE6941",
"D c #B06742",
"F c #B46C44",
"G c #BA7147",
"H c #D17E40",
"J c #CE824A",
"K c #D58342",
"L c #D88644",
"P c #DB8A46",
"I c #D58A4E",
"U c #DF8E4A",
"Y c #E18F4A",
"T c #E4934D",
"R c #E69550",
"E c #E89752",
"W c #EA9A54",
"Q c #EC9E58",
/* pixels */
"ImMMmvkjpjjjjiiippppuiiiiyiupyiiuyttyy4yyt333ty333y13tt3,,,32,1,",
"QJkvkkkpppiiiyiuipipiiiiiiiudyipuiiiuiyuuytyttt3yt13333333<13,<1",
"WTJvvkjvvvkkjjkjppppppjjjpjppipppjpiiiuuttutyyyyyyytt333333y3,31",
"ETWF<2232223,22,2<<<,222333,21232<<<,,2,><27,>>*,>,,232321222>&&",
"WUTn0$OOooO+++oooooO++$=====$$$==>#O#:::====$=:>::6800qqq0q00005",
"EPTlfg:277<932<<<>>-7778228888777888266688888878009888qffffgfggg",
"TLYl0h0                                                     0080",
"TKYxehq                                                         ",
"TLYlwge                                                         ",
"TLYhwge                                                         ",
"YLTxqgq                                                         ",
"TLThegq                                                         ",
"WLYxqhq                                                         ",
"WPYd0g0                                                         ",
"QLYxqf0                                                         ",
"WLPl0gq                                                         ",
"TKPlqf0                                                         ",
"TKUxwsr                                                         ",
"TLLlqgq                                                         ",
"UKLd0gq                                                         ",
"LCLsqxg                                                         ",
"LCLsqge                                                         ",
"LVKswgr                                                         ",
"LCKswgr                                                         ",
"LCCsqgr                                                         ",
"LCKaqgr                                                         ",
"KCCd0fe                                                         ",
"LBVxqgr                                                         ",
"KBBlrhr                                                         ",
"CMBxrgz                                                         ",
"VmMhrxz                                                         ",
"VmMdrgr                                                         ",
"HNMdwgZ                                                         ",
"HNMxrZz                                                         ",
"VmMdgAZ                                                         ",
"VmmhzSZ                                                         ",
"BmmsrSA                                                         ",
"NmmdZDA                                                         ",
"mkvlzSA                                                         ",
"MmmlZDZ                                                         ",
"MmvdZFA                                                         ",
"mmvhZFS                                                         ",
"mvkdAFA                                                         ",
"vvkhZFS                                                         ",
"vmpxAFA                                                         ",
"mvpnAGS                                                         ",
"vpkxgGS                                                         ",
"bvpxZFA                                                         ",
"bcphgFS                                                         ",
"vppxZGS                                                         ",
"kpidZGS                                                         ",
"ppihAGA                                                         ",
"ppuxAGZ                                                         ",
"ppixAFA                                                         ",
"piyxZDg                                                         ",
"puyxzSw                                                         ",
"iuuzzz8                                                         ",
"iyuAx8X@-<111232333y0yt143393t322111318111<<22<;<2<<<<><<1<1<9<2",
"iyynr.+,13tttttyuyyyuyttttttuuyytyytttttttt31111<111<;<,<;<;;;<<",
"ywsx$*11<11111334334ttt31133t3311211111;,;;*-;;**-**&&&&&&&&&%%+",
"yy4$:>:=&=:>272>2><,>>>><22>222>>>->--<-->>>>>2282>82622626288<7",
"u2$#$==::::=:==>::5>>>>55767666868809qqqq0qqqqggffggrsrgsgzggggh",
"3@#::5::>65>5:55>5:>6>78827868888988008800q0qqq0gr0qerwferfszsgg",
"#@$:$>:>5655>5>:555>56>66088865668886889872008080q90wqweqeqwweee"
};
