/* XPM */
static char *_fe21b033af74fbce03b22722943a109d9mwNcoIBPpC6e5b[] = {
/* columns rows colors chars-per-pixel */
"64 64 165 2 ",
"   c None",
".  c #742D23",
"X  c #743126",
"o  c #7B3426",
"O  c #773628",
"+  c #7D3729",
"@  c #7C3A2A",
"#  c #833624",
"$  c #863825",
"%  c #8B3D26",
"&  c #833C2A",
"*  c #8B3E28",
"=  c #913E28",
"-  c #87422D",
";  c #8C442D",
":  c #8F482F",
">  c #914127",
",  c #94442A",
"<  c #99462A",
"1  c #95482C",
"2  c #9C4A2A",
"3  c #8D4630",
"4  c #8F4830",
"5  c #914730",
"6  c #934C32",
"7  c #975135",
"8  c #975235",
"9  c #975034",
"0  c #9C5333",
"q  c #9A5135",
"w  c #995235",
"e  c #9A5335",
"r  c #995336",
"t  c #9C5336",
"y  c #9B5435",
"u  c #9B5535",
"i  c #9D5436",
"p  c #9D5537",
"a  c #9E5537",
"s  c #9D5637",
"d  c #9F5736",
"f  c #9B5435",
"g  c #9F5837",
"h  c #9D5738",
"j  c #9E5938",
"k  c #A04D2A",
"l  c #A04E2A",
"z  c #A14E2A",
"x  c #A14F2A",
"c  c #A24F2A",
"v  c #A24F2B",
"b  c #A34D2C",
"n  c #A0502A",
"m  c #A2502A",
"M  c #A3502A",
"N  c #A2512A",
"B  c #A3502B",
"V  c #A2522A",
"C  c #A3522A",
"Z  c #A2532B",
"A  c #A4502A",
"S  c #A4512A",
"D  c #A4512B",
"F  c #A4522B",
"G  c #A5522B",
"H  c #A6522B",
"J  c #A6532B",
"K  c #A5542B",
"L  c #A5552B",
"P  c #A6542A",
"I  c #A7542B",
"U  c #A6552B",
"Y  c #A7552B",
"T  c #A2502C",
"R  c #A5522C",
"E  c #A4532C",
"W  c #A4532D",
"Q  c #A6532C",
"!  c #A6542C",
"~  c #A7542C",
"^  c #A6552C",
"/  c #A6542D",
"(  c #A7502D",
")  c #A8542B",
"_  c #A8552B",
"`  c #A9552B",
"'  c #AA562B",
"]  c #A8552C",
"[  c #A9552C",
"{  c #A9572C",
"}  c #A9572D",
"|  c #AA562C",
" . c #AB572C",
".. c #AA572D",
"X. c #AB572D",
"o. c #AA532E",
"O. c #AC582B",
"+. c #AB582D",
"@. c #AB592F",
"#. c #AC582C",
"$. c #AC592C",
"%. c #AD592C",
"&. c #AC582D",
"*. c #AC592D",
"=. c #AE592C",
"-. c #AD5A2D",
";. c #AE5A2C",
":. c #AF5A2C",
">. c #AE5A2D",
",. c #AE5B2D",
"<. c #AD5A2E",
"1. c #AE5A2E",
"2. c #B05B2C",
"3. c #B05C2D",
"4. c #B15D2D",
"5. c #B25D2D",
"6. c #B35D2D",
"7. c #B25E2D",
"8. c #B05C2E",
"9. c #B15D2E",
"0. c #B15D2F",
"q. c #B25E2E",
"w. c #B35F2E",
"e. c #B25F2F",
"r. c #B35F2F",
"t. c #A05734",
"y. c #A25A36",
"u. c #A25A39",
"i. c #A45C39",
"p. c #A95F3A",
"a. c #B25F30",
"s. c #B5602F",
"d. c #AB6037",
"f. c #A6613D",
"g. c #AE663D",
"h. c #AC633C",
"j. c #AF683F",
"k. c #B46030",
"l. c #B46233",
"z. c #B2663D",
"x. c #B46A3E",
"c. c #B86C3E",
"v. c #A76340",
"b. c #AB6640",
"n. c #AE6942",
"m. c #B66F43",
"M. c #B36C41",
"N. c #BA6E41",
"B. c #B77145",
"V. c #BB7345",
"C. c #BB7548",
"Z. c #BB7648",
"A. c #BD794C",
"S. c #C17647",
"D. c #C67946",
"F. c #C37B4B",
"G. c #C97D49",
"H. c #C37E50",
"J. c #C7814F",
"K. c #CB814E",
"L. c #C68253",
"P. c #C98554",
"I. c #CA8857",
"U. c #CD8B5A",
"Y. c #D08F5C",
/* pixels */
"9.9.:.' +.O.' :.' U ..' ..A O...U A z z A C C A z z 2 R U A A C z A z 2 2 2 2 2 < < z z 2 < 2 < 2 2 2 2 < 2 , , 2 2 2 2 , , > , ",
"9.9.9.9.:.,.+.,./ :...:.....9.........' ' R R U v z z 2 2 z z 2 2 2 1 < 2 2 2 , < , > < , > , > > , > > , , > > > , , , , , , 6 ",
"9.O.2.9.:.9.k.l.a.9.O.9.@.:.9.:.a.k.:.:.:.....+.A / ..R U U R R ..C z C 2 m 2 l z < k v , 2 2 2 2 , < , , > < > > > > , $ > 6 u ",
"U C U C / +./ / U U U ' / / / A C C T z z 2 z 2 2 2 2 1 < < 1 1 1 < < < 2 , , 2 < 1 1 1 > % % , , , < , < , ; , , , ; , ; u u 8 ",
"X X . X O + & # & & & @ @ + & & & @ X O & & - & & - & @ & & & - - - 6 6 9 e y e 6 h 8 6 6 6 - & $ - - - 3 - - 3 : 9 - 8 g.g u u ",
"* % * * * ; 5 5 ; 5 5 3 : ; 3 ; 5 5 3 3 3 ; : 5 5 : 3 3 3 5 5 6 6 5 6 9 6 0 t p t h h t.h u.h y 6 6 6 5 4 3 : - - O @ Z.c.u p g ",
"; : - - 3 3 3 5 3 : : ; 3 4 3 5 4 4 4 5 5 3 3 3 - 3 4 4 4 4 4 4 6 5 : - : 5 6 6 6 8 8 e e r 8 y u y y y y 6 7 5 @ O j.J.x.g g g ",
"                                                                                                                  j S.F.x.g g g ",
"                                                                                                                  h.F.K.x.u g t.",
"                                                                                                                  g.D.J.x.u g g ",
"                                                                                                                  M.K.K.x.u p g ",
"                                                                                                                  B.K.F.x.g p g ",
"                                                                                                                  Z.K.F.x.t.g g ",
"                                                                                                                  Z.K.F.x.y.y.y.",
"                                                                                                                  B.D.F.x.y.y.y.",
"                                                                                                                  c.K.F.x.y.y.i.",
"                                                                                                                  c.G.S.x.y.y.y.",
"                                                                                                                  c.G.F.x.y.i.y.",
"                                                                                                                  c.K.S.g.i.i.i.",
"                                                                                                                  V.D.V.g.i.f.y.",
"                                                                                                                  V.G.Z.g.i.i.i.",
"                                                                                                                  B.D.V.d.d.i.i.",
"                                                                                                                  V.D.B.h.h.d.f.",
"                                                                                                                  B.S.B.d.h.y.j ",
"                                                                                                                  M.N.N.h.h.i.u.",
"                                                                                                                  M.V.N.h.f.i.i.",
"                                                                                                                  M.N.x.h.h.f.f.",
"                                                                                                                  g.c.z.g.x.f.h.",
"                                                                                                                  g.M.x.f.x.i.b.",
"                                                                                                                  h.c.x.j.n.f.g.",
"                                                                                                                  g.N.M.g.M.h.b.",
"                                                                                                                  h.N.n.g.M.b.b.",
"                                                                                                                  g.N.M.h.B.M.n.",
"                                                                                                                  h.N.g.i.M.b.b.",
"                                                                                                                  p.N.f.i.M.g.b.",
"                                                                                                                  i.z.h.f.B.n.n.",
"                                                                                                                  i.g.f.f.Z.n.M.",
"                                                                                                                  t.z.i.f.B.M.M.",
"                                                                                                                  t.z.t.f.B.M.M.",
"                                                                                                                  u.M.g h.Z.M.B.",
"                                                                                                                  g c.e y.V.M.B.",
"                                                                                                                  i.z.9 p.V.m.B.",
"                                                                                                                  f.x.9 p.B.m.B.",
"                                                                                                                  i.z.6 i.C.m.Z.",
"                                                                                                                  i.p.6 p.Z.M.Z.",
"                                                                                                                  y.p.5 p.Z.M.B.",
"                                                                                                                  p.p.1 i.F.B.B.",
"                                                                                                                  y.i.1 i.F.Z.F.",
"                                                                                                                  p.h.1 i.F.Z.H.",
"                                                                                                                  f.f.5 f.G.Z.H.",
"                                                                                                                  g.h.2 f.L.A.F.",
"                                                                                                                  h.h.0 g.L.A.H.",
"                                                                                                                  d.z.u b.P.F.L.",
"                                                                                                                  d.p.t.g.P.F.H.",
"                                                                                                                  p.h.t.b.L.A.L.",
"                                                                                                                  t.z.p n.P.A.H.",
"                                                                                                                  h.z.t.M.P.F.L.",
"                                                                                                                  f.x.y.M.I.P.P.",
"o.o.o.o...( U R b b ( o.o.o.o.( b b b z b k k b v k k k < < < < 2 1 < = < = < < < < < < < 2 < < 2 < < 2 < < , , = 1 x.h.n.I.L.P.",
"v k k v v k 2 2 2 2 2 z 2 k 2 2 2 2 2 < 2 2 < < 1 , > , > , = * * = = * * % % $ $ $ $ $ $ $ # # # # # # # # # # o . ; d.C.U.I.P.",
"< 1 < < < , , , , 1 1 < 2 < , ; > * - ; * = ; * % % % % % - ; ; > ; * - * * * * - > - - - * * & & * & & - - ; ; : 1 - 7 A.Y.L.L.",
"- - - - - - - ; ; : : 4 5 5 1 : 4 4 1 6 6 9 6 6 6 9 q q y y t.t.p p t.j h u.p h j i.g g t.u.p j u.i.u.p.i.v.h.i.v.v.v.v.n.I.U.U.",
"- : : : : : 6 6 1 6 8 6 4 6 6 6 7 7 6 9 t e r 6 q t q e p y 8 j g g g j j p j p g i.i.i.f.i.i.i.v.i.i.v.i.j j i.i.v.v.v.v.n.L.Y.",
"1 - : - : : : 4 6 6 4 6 6 4 4 4 6 1 6 6 6 6 6 6 6 6 8 6 6 8 e y p e e j j g j g s g i.y.u.y.u.i.p.i.i.f.f.v.v.v.j v.f.v.v.v.n.U."
};
