/* XPM */
static char *altar_224x288___standard1671263393[] = {
/* columns rows colors chars-per-pixel */
"64 64 185 2 ",
"   c None",
".  c #6F574A",
"X  c #735748",
"o  c #7A5248",
"O  c #7C684F",
"+  c #81573F",
"@  c #825941",
"#  c #83634A",
"$  c #82694F",
"%  c #8D6B4D",
"&  c #916D4E",
"*  c #93774F",
"=  c #997E4E",
"-  c #967B4E",
";  c #886554",
":  c #826A50",
">  c #8C6B53",
",  c #826751",
"<  c #926D51",
"1  c #867153",
"2  c #8D7554",
"3  c #8B755A",
"4  c #8F7858",
"5  c #937352",
"6  c #9C7356",
"7  c #957B54",
"8  c #997D55",
"9  c #9F755B",
"0  c #947B5A",
"q  c #9C7D5A",
"w  c #97735B",
"e  c #A07F56",
"r  c #A07758",
"t  c #A17D5B",
"y  c #9C8156",
"u  c #9D825A",
"i  c #9F885D",
"p  c #97815C",
"a  c #A08257",
"s  c #A2845A",
"d  c #A5895B",
"f  c #A98C5E",
"g  c #A5BC5A",
"h  c #9D8563",
"j  c #A28561",
"k  c #A58A63",
"l  c #AA8D63",
"z  c #AD8C6D",
"x  c #AB8368",
"c  c #B28965",
"v  c #B28D6C",
"b  c #AD9464",
"n  c #AF9068",
"m  c #B39763",
"M  c #B39963",
"N  c #BA9D61",
"B  c #B5966D",
"V  c #B59C6D",
"C  c #BB916C",
"Z  c #AB8F71",
"A  c #AF9171",
"S  c #AE9A78",
"D  c #A99277",
"F  c #B49473",
"G  c #B99473",
"H  c #B69B73",
"J  c #BA9B73",
"K  c #B39A7B",
"L  c #BD9878",
"P  c #BFA063",
"I  c #BAA26F",
"U  c #AEBD63",
"Y  c #B4BF6A",
"T  c #B9BE6E",
"R  c #B2BC63",
"E  c #BBA276",
"W  c #BFA977",
"Q  c #BDA279",
"!  c #BDBF70",
"~  c #C19A75",
"^  c #C19B79",
"/  c #C19270",
"(  c #C3A464",
")  c #C9A764",
"_  c #CDB26F",
"`  c #C2A376",
"'  c #C4A977",
"]  c #C2A679",
"[  c #CFA77D",
"{  c #C4AB7A",
"}  c #CCAD7D",
"|  c #CDA376",
" . c #D3AE7D",
".. c #CCB473",
"X. c #CBB27D",
"o. c #D3B27E",
"O. c #D8BD7A",
"+. c #AFC065",
"@. c #B6C16C",
"#. c #B8C16E",
"$. c #BDC273",
"%. c #BEC278",
"&. c #B5C375",
"*. c #C1C276",
"=. c #C5C37A",
"-. c #CAC47E",
";. c #7882C3",
":. c #A69687",
">. c #AC9A86",
",. c #B79E85",
"<. c #B2998C",
"1. c #AE9C9A",
"2. c #BAA184",
"3. c #BCA98E",
"4. c #9B94B3",
"5. c #A19CB9",
"6. c #C0A585",
"7. c #CCAD82",
"8. c #C5AB84",
"9. c #D2AF82",
"0. c #CEB484",
"q. c #CEBB84",
"w. c #CBB38D",
"e. c #D2B583",
"r. c #D9B686",
"t. c #D4BA86",
"y. c #D9BB86",
"u. c #D3B488",
"i. c #D6BC89",
"p. c #DABD8B",
"a. c #C9B593",
"s. c #CDBA94",
"d. c #CDBC9A",
"f. c #D2BE92",
"g. c #D0BF99",
"h. c #E0BD8A",
"j. c #CCBEA1",
"k. c #BDC884",
"l. c #CDC482",
"z. c #C4C682",
"x. c #D2C486",
"c. c #D6C38A",
"v. c #DBC48D",
"b. c #D3C88B",
"n. c #DDC98D",
"m. c #DCC287",
"M. c #CFC19F",
"N. c #D3C096",
"B. c #DDC790",
"V. c #D5CC94",
"C. c #DDC890",
"Z. c #D3C49C",
"A. c #D7C99F",
"S. c #DDCB9A",
"D. c #D9C699",
"F. c #DDD19F",
"G. c #E1C48E",
"H. c #E0CA8E",
"J. c #E1C691",
"K. c #E2CC93",
"L. c #E9CE95",
"P. c #E1CE9C",
"I. c #E5D196",
"U. c #EAD496",
"Y. c #E9D897",
"T. c #EDD59A",
"R. c #EBDA99",
"E. c #E4D19E",
"W. c #F2DB9D",
"Q. c #CFC5A6",
"!. c #D2C5A4",
"~. c #D2C9A8",
"^. c #D4D1A4",
"/. c #D4CBB7",
"(. c #E3CFA5",
"). c #E4CFAA",
"_. c #E1D0A3",
"`. c #E3D7B3",
"'. c #F7E5A0",
"]. c #F9E7A2",
"[. c #FEECA6",
"{. c #FFF0A8",
"}. c #828BC5",
"|. c #D7CFC3",
" X c #D8D2C4",
/* pixels */
"                                                                                                                                ",
"                      R.R.                                                              Y.R.                                    ",
"                    Y.].].Y.                                                          R.].'.Y.                                  ",
"                  n.{.Y.R.[.R.                                                      R.[.R.Y.[.K.                                ",
"                  y m.Y.R.R.t.                                                      O.R.R.W.n.y                                 ",
"                  5 y n.R.O.)                                                       ) O.W.n.y *                                 ",
"                  y 8 y ..<.,.                                                      2.<._ i 7 y                                 ",
"                  7 u = B }.1.                                                      1.;.I y u 7                                 ",
"                  7 u = K 5.o.t.v.B.E.I.I.I.K.J.p.v.v.v.[ J.K.K.I.I.K.J.I.K.I.I.U.m.} 4.K y y 7                                 ",
"                  8 y 7 N 2.' t.i.i.v.J.C.n.C.n.p.i.y.i.e.m.n.C.C.C.v.n.S.C.n.v.v.n.' 6.( 7 y =                                 ",
"                  7 a 7 N 2.' t.i.C.C.n.S.C.B.B.C.B.C.v.u.i.v.n.n.c.i.v.S.S.v.C.C.v.' 2.( 7 y 7                                 ",
"                  7 u 7 N Q E t.v.B.C.C.n.B.C.C.C.C.C.B.e.p.C.S.v.S.n.v.n.n.C.C.C.H.{ 2.( 7 y p                                 ",
"                  7 y 7 N 2.H t.B.B.B.C.B.B.C.C.C.J.C.v.i.B.D.S.n.S.C.C.J.C.C.C.B.v.` 2.( 7 y 7                                 ",
"                  2 u 7 N 6.8.i.v.B.C.v.B.n.n.B.C.v.C.C.m.C.n.v.C.P.n.C.C.C.K.C.n.v.2.2.( 7 y 7                                 ",
"                  i 7 2 m ,.E t.i.v.B.C.n.n.C.C.B.B.n.v.t.C.C.C.C.C.C.v.C.C.C.n.C.v.' 2.( 7 7 f {                               ",
"                X.p * 4 d 3.E t.B.c.v.v.c.B.n.B.B.B.B.t.r.p.C.v.C.C.C.C.C.C.C.C.C.v.Q 3.N 8 1 3 t.{                             ",
"              t.m.Q : 1 N >.S n.n.C.C.c.v.S.C.n.v.C.S.t.*.-.v.B.C.v.v.c.n.C.C.n.C.c.H :.b 2 $ E y.J.t.                          ",
"            i.J.i.v.] O 4 D f.P.S.n.B.C.v.C.C.C.C.v.v.@.-.#.x.B.C.S.K.n.v.v.C.v.S.E.w.D u O Q v.y.c.T.                          ",
"          i.v.i.i.i.v.{ h c.N. XS.n.C.B.B.n.B.B.B.v.@.=.=.=.#.m.v._.`.v.C.v.v.v.P.|.a.p.b E v.t.i.i.p.v.                        ",
"        i.G.i.i.v.C.C.C.n.i.v.!.N.J.B.B.B.B.v.t.v.=.$.l.T -.*.x.H.c.S.B.B.v.v.n.A.d.v.C.v.i.t.i.i.y.y.p.v.                      ",
"      m.v.v.n.v.c.C.C.B.B.B.C.n.a.!.(.v.B.B.c.v.=...@.$.l.@.T $.=.G.v.B.v.B.m.A.~.v.v.n.C.B.B.c.t.i.i.i.i.v.                    ",
"    v.L.v.J.C.C.B.v.C.C.C.n.C.C.y.M.A.H.C.n.v.$.b.$.%.B.p.q.Y -.T l.J.v.C.v.g.Q.v.n.C.B.n.B.C.i.y.i.i.t.t.L.v.                  ",
"      T.C.C.n.C.B.B.C.B.B.n.C.C.v.H.g.N.v.J.$.l.$.$.v.v.v.p.l.! *.$.=.J.m.A.!.H.v.B.n.B.C.B.i.t.i.i.c.v.p.L.v.                  ",
"      T.C.C.C.B.n.B.C.C.B.B.C.C.C.C.v.a.p.*.! =.$.c.B.i.9.v.B.t.k.V.! x.v.~.P.v.C.v.v.C.C.v.v.v.i.c.B.C.v.T.v.                  ",
"      T.C.C.C.C.B.C.B.C.C.B.C.C.v.B.m.p.=.*.$.$.i.v.B.u.C.n.c.v.q.&.l.-.$.).S.n.C.v.C.C.v.v.C.C.v.n.B.C.B.T.v.                  ",
"      T.C.C.C.n.C.C.B.n.C.C.C.v.v.t.v.=.l.Y $.c.B.B.B.C.B.C.B.v.B.c.#.T $.c.p.c.B.v.C.C.v.c.C.C.B.C.C.C.C.T.v.                  ",
"      U.C.C.C.C.C.C.C.B.C.C.n.S.t.p.$.R $.-.i.B.v.v.B.B.n.B.C.v.v.B.p.$.@.-.V.G.t.B.B.B.B.B.B.C.B.C.C.B.v.T.v.                  ",
"      L.v.C.C.C.C.C.C.B.C.C.C.S.m.n.l.U +.p.c.m.v.C.B.C.C.C.B.B.v.v.B.i.=...^.^.).v.C.B.B.B.C.C.v.n.C.C.C.W.B.                  ",
"      p. .t.i.u.c.p.c.C.C.i.X.r.l.Y -.c.t.c.C.v.C.B.C.B.C.n.C.C.C.p.p.v.v.n.g @.V.B.0.t.S.K.p.i.e.p.v.i.p.h.[                   ",
"      G.i.v.v.m.i.i.C.Y.R.v.o.} b.=.R *.t.y.K.K.C.C.B.C.B.B.C.C.C.v.C.y...$.T +.-.y.i.B.Y.R.C.v.B.B.i.u.t.G.t.                  ",
"      L.B.C.C.C.B.I.R.Y.R.R.C.e. .l.k.%.#.p.v.C.J.C.C.C.C.B.C.B.J.I.p.X.$.T =.l.e.o.I.R.Y.Y.R.C.v.C.v.v.p.K.v.                  ",
"      U.B.B.J.C.B.{ R.R.Y.R.n.i.t. .z.b.*.@.t.y.n.K.n.C.B.C.n.C.C.v.t.$.$.$.-.e.o.t.b.W.Y.R.R.{ c.C.C.C.v.L.v.                  ",
"      T.n.C.B.B.C.8 V R.R.n.l c.v.p.p.l.$.c.@.r.v.K.K.C.C.C.J.K.v.y.&.=.#.*.y.i.n.i.f n.R.W.E 5 B.B.B.C.C.T.v.                  ",
"      T.B.B.C.C.C.k + E n.s d v.C.J.v.y.=.@.$.#.t.v.C.K.C.n.I.y.y.$...-.=.y.m.C.S.c.f s n.W @ s v.B.C.C.B.T.v.                  ",
"      T.B.B.C.n.C.k % & 8 a l c.C.B.v.t.r.-.$.*.@.p.i.C.J.I.v.u.$.$.b.*.r.i.S.v.B.n.b a y % % u i.B.B.C.C.T.v.                  ",
"      Y.C.C.C.B.J.j % * s d f v.C.B.S.C.s.e.=.=.-.@...y.C.y.p.*.@.$.=.u.a.v.C.n.n.v.f d f 7 % u v.B.C.C.B.T.v.                  ",
"      T.C.C.C.B.C.l % 5 s d f v.C.v._.!.s.v.p.x.@.g =.t. .r.x.Y *.-.r.c.N.d.n.v.n.v.l d s 5 % h C.C.C.B.B.Y.v.                  ",
"      T.C.C.C.C.C.j % > a d d c.C.H.Z.!.n.C.v.o.*.#.l.@.T @.-.*.v.p.m.C.n.A.Z.H.S.v.f d s < % s C.C.C.v.B.T.C.                  ",
"      v.v.v.v.v.J.j % * s d d D._.f.d.H.B.v.C.i.y.c.Y x.@.b.@.x.p.u.C.C.C.n.N.d.H.B.l d u < % j C.C.C.i.v.H.}                   ",
"    5 B 0.v.v.v.n.j % 5 u s d S. Xw.v.v.B.B.v.i.i.y.=.@.l.@.=.r.t.v.v.C.C.C.C.f./.S.d d s 5 % q v.v.i.i.0.B 5                   ",
"      t m c.S.v.J.j % > y d d s.d.m.C.C.C.C.v.t.i.t.r.=.%.*.e.m.c.B.C.C.C.C.B.n.!.d.d s a * % q i.t.c.{ l s                     ",
"        t m c.J.D.q $ % s d h w.t.m.v.v.C.C.v.i.i.i.e. .-.o.v.C.B.B.B.C.C.C.B.B.n.f.i d q 2 % w i.v.X.f s ;                     ",
"          y n t.c.q % > 8 d d t.v.C.B.B.C.C.v.i.i.t.i.t.| p.K.v.B.C.C.n.C.C.C.C.S.c.f d q % < p J.{ d m ;                       ",
"            y b e.h X > 0 s 0 i.C.B.C.C.C.C.v.i.i.i.i.i.t.v.n.C.C.C.B.C.v.v.v.C.v.i.q y 4 , # h X.M B >                         ",
"              s m Q 3 . 4 7 V B.C.B.C.B.C.C.v.v.v.i.i.i.i.C.C.C.C.n.C.B.n.n.C.v.y.i.V 2 4 . 3 I V b %                           ",
"                t l ] 4 , V { v.C.n.B.C.C.v.i.C.C.B.i.t.i.B.C.C.C.B.B.C.B.B.v.i.i.t.X.E $ 3 I M u %                             ",
"                  q M E H { { x.B.B.C.B.C.C.v.v.C.C.v.i.9.v.C.v.C.C.n.B.B.n.v.v.i.i.{ { H E M s ;                               ",
"                    y b { X.0.v.n.C.n.C.C.C.C.v.v.C.C.B.t.n.C.C.C.B.B.C.C.C.C.C.m.u.{ { ' M u >                                 ",
"                      s b { q.v.C.B.C.C.C.B.C.B.v.C.C.v.i.C.C.C.C.C.C.C.n.B.B.B.v.t.X.] b s >                                   ",
"                        t l { C.C.B.C.C.C.C.C.m.v.C.C.v.e.B.C.C.C.C.C.C.B.B.B.v.i.i.] l d >                                     ",
"                          t l } i.B.B.m.v.p.v.p.p.v.v.u.^  .i.i.v.v.i.i.c.i.i.u.e.0.n t >                                       ",
"                            w H B.i.v.[ e.e.e.0.e.e.} t.i.i.i.v.p.v.e.e.v.v.c.B.9.q q >                                         ",
"                              u.K.B.C.t.C.C.C.C.C.C.v.B.C.J.C.C.C.C.B.B.C.C.B.B.J.E o                                           ",
"                              C.W.K.K.B.S.K.C.J.C.I.i.t.I.C.J.J.C.K.p.v.K.K.K.K.T.c.                                            ",
"                              c ] E E G  .q.t.q.q.t.B < l k v v t k 6 B ] E E E } /                                             ",
"                              J ^ B F F x 9 < < 6 9 x H z r v H G G l 9 r v F F L L                                             ",
"                              K.T.K.K.S.v.v.e.t.m.v.C.J.C.m.C.J.K.K.C.v.v.K.J.C.T.J.                                            ",
"                              y.U.v.B.B.v.C.p.u.S.C.B.B.B.0.v.v.B.B.B.i.m.K.K.K.T.C.                                            ",
"                              G E F D F B J B C F z F D H F H B B J F A L Q H Q ] ^                                             ",
"                              B.U.v.e.B.B.v.v.C.C.t.v.v.v.B.B.i.i.B.v.v.i.0.7.q.v.i.                                            ",
"                              K.W.K.v.K.K.J.K.H.J 0.I.K.K.K.I.C.J.K.K.K.K.I.H.I.'.E                                             ",
"                              ] 8.Q B J K H ] k   k ] E E J Q H k Q E E E K z E n                                               ",
"                              0.B.0.e.0.7.t.u.c.I.C.u.0.0.0.0.0.p.0.0.` 0.q.u.0.v.C.                                            ",
"                              K.R.K.C.K.v.J.K.K.I.K.C.B.S.K.K.K.I.K.v.t.P.J.K.I.T.K.                                            "
};
