/* XPM */
static char *altar_224x288___standard_21671263392[] = {
/* columns rows colors chars-per-pixel */
"64 64 173 2 ",
"   c None",
".  c #6D544A",
"X  c #7C5E4B",
"o  c #7A634D",
"O  c #7F6A4E",
"+  c #7E6653",
"@  c #845E45",
"#  c #896347",
"$  c #85664D",
"%  c #8A6649",
"&  c #846B4E",
"*  c #8C6A4D",
"=  c #916F4F",
"-  c #8F744E",
";  c #92734E",
":  c #836C54",
">  c #8C6B53",
",  c #916E51",
"<  c #867357",
"1  c #8D7453",
"2  c #8E7957",
"3  c #937352",
"4  c #9B7455",
"5  c #947B53",
"6  c #9A7D55",
"7  c #9D7759",
"8  c #937C5A",
"9  c #9B7C5B",
"0  c #A27559",
"q  c #A37C5C",
"w  c #977A67",
"e  c #9E7A62",
"r  c #A57E62",
"t  c #9D8257",
"y  c #97815D",
"u  c #9D825A",
"i  c #A18356",
"p  c #A3845B",
"a  c #A5895C",
"s  c #A88D5E",
"d  c #A9905E",
"f  c #A2BB56",
"g  c #A7BD5C",
"h  c #A58563",
"j  c #AB8365",
"k  c #A58C63",
"l  c #A88D63",
"z  c #AC8568",
"x  c #A68F69",
"c  c #AE8A6B",
"v  c #B08964",
"b  c #B48D69",
"n  c #AC9364",
"m  c #AE946A",
"M  c #B29663",
"N  c #B69964",
"B  c #BB9E65",
"V  c #B2946D",
"C  c #BA976E",
"Z  c #B49B6C",
"A  c #B99E6E",
"S  c #AD8F71",
"D  c #AE9072",
"F  c #B49573",
"G  c #BA9672",
"H  c #B59B72",
"J  c #BA9C75",
"K  c #BE9C79",
"L  c #BBA16C",
"P  c #AEBE64",
"I  c #B2BE66",
"U  c #B4BE6A",
"Y  c #BABF6E",
"T  c #B6A175",
"R  c #BBA272",
"E  c #BFA974",
"W  c #BEA37A",
"Q  c #BCBF70",
"!  c #C59C75",
"~  c #C09E7B",
"^  c #C2A56C",
"/  c #C6A86D",
"(  c #C8A96B",
")  c #D3B16F",
"_  c #C1A775",
"`  c #C3A975",
"'  c #CBAD72",
"]  c #C3A27A",
"[  c #CDA678",
"{  c #C4AC7A",
"}  c #CBAC7C",
"|  c #D1AC7E",
" . c #CFB176",
".. c #C2BC76",
"X. c #C6B17E",
"o. c #CAB27E",
"O. c #C5BE7A",
"+. c #CBBC7B",
"@. c #D9B775",
"#. c #D2B37D",
"$. c #D1BD7C",
"%. c #B5C16B",
"&. c #B9C06D",
"*. c #B6C574",
"=. c #BDC273",
"-. c #C1C176",
";. c #C5C37A",
":. c #C9C37E",
">. c #CCAC81",
",. c #CDAC8C",
"<. c #C4AA8D",
"1. c #D4AF82",
"2. c #C7B280",
"3. c #CDB482",
"4. c #CFB984",
"5. c #CFB989",
"6. c #CBB58B",
"7. c #D3B584",
"8. c #D9B486",
"9. c #D4BB86",
"0. c #D8B986",
"q. c #D7B688",
"w. c #D9B789",
"e. c #D6BC89",
"r. c #D9BE8A",
"t. c #CEBA90",
"y. c #D4BF92",
"u. c #D8BF96",
"i. c #E0BF8F",
"p. c #CCC482",
"a. c #C1C882",
"s. c #CCC489",
"d. c #CCCD8E",
"f. c #D3C485",
"g. c #DAC186",
"h. c #D6C28B",
"j. c #DBC48D",
"k. c #D0C889",
"l. c #DDC88E",
"z. c #DDC690",
"x. c #D2CE93",
"c. c #DDC990",
"v. c #DDC69B",
"b. c #DECA9A",
"n. c #CDD292",
"m. c #D3D09C",
"M. c #D8D39F",
"N. c #E1C48F",
"B. c #E7CE8B",
"V. c #E2C591",
"C. c #E2CC93",
"Z. c #E0CE9D",
"A. c #E6D295",
"S. c #E9D497",
"D. c #EBD897",
"F. c #EBD499",
"G. c #EBDA99",
"H. c #F0DD9C",
"J. c #F1E09D",
"K. c #D4D9A4",
"L. c #E3CDAA",
"P. c #E2CBA5",
"I. c #E4D4AD",
"U. c #E6D7B1",
"Y. c #E7D9B2",
"T. c #E7DFBE",
"R. c #F6E4A0",
"E. c #F8E1A2",
"W. c #FCEAA4",
"Q. c #FFF0A8",
"!. c #EFDFC8",
"~. c #EEE4CC",
"^. c #F1E9D1",
/* pixels */
"                        R.G.                                                              H.D.                                  ",
"                      J.G.W.G.                                                          G.G.W.D.                                ",
"                    c.R.D.G.Q.                                                        G.J.G.D.Q.                                ",
"                    a l.D.G.D. .                                                      B.G.G.J.o.#                               ",
"                    - p A.A.@.(                                                       ) g.G.E 6 t                               ",
"                    t - d / M ^                                                       Z B ^ - a 6                               ",
"                    t 5 p d < ^                                                       a < N 5 p t                               ",
"                    t 5 p M n #.z.V.C.F.F.F.F.D.C.V.V.C.i.w.F.F.F.F.F.C.F.F.F.F.D.F.g.^ n M 1 p t                               ",
"                    5 5 t ^ L ' r.0.h.c.c.c.c.l.z.h.r.h.0.e.j.c.c.c.z.j.z.c.c.c.j.c.:.L ( M 5 p t                               ",
"                    t t t L L ) e.h.c.z.z.l.z.c.c.c.j.N.z.u.e.j.c.z.h.r.j.c.c.z.l.c.N.L ^ M - p 5                               ",
"                    5 5 t ^ M / h.z.c.c.c.z.c.c.j.c.z.j.v.v.c.z.l.c.c.j.c.c.z.c.c.c.N.B ^ N 2 a t                               ",
"                    t 5 t L N E r.l.c.l.c.c.z.l.c.c.c.z.z.v.c.l.c.c.c.c.c.c.c.c.c.c.@.N ( M - a 5                               ",
"                    2 5 t ( N ' 9.j.c.c.c.c.j.c.c.c.z.c.v.b.c.c.c.c.c.c.c.z.c.C.c.c.4.M ^ M - a t                               ",
"                  R t t 2 L N ` r.r.j.z.j.j.l.c.c.z.l.j.z.b.c.z.c.c.l.c.c.c.c.l.c.c.g.B ( M 2 - n                               ",
"                } 7.& 5 2 Z N E z.j.j.j.j.j.z.l.c.c.j.h.u.P.v.V.c.c.c.c.c.c.c.c.j.c.9.M ^ d t o x 7.                            ",
"                j.e.H o 2 L u 2.V.l.z.j.h.z.c.c.c.c.c.j.h.n.h.g.c.c.z.j.j.j.z.l.c.c.9.x n a O y 7.r.V.                          ",
"              C.0.r.r.V O y R l.c.l.c.c.j.j.c.c.c.l.V.;.a.M.=.r.l.c.c.j.j.j.j.c.c.c.c.{ m 2 8 9.j.e.r.z.                        ",
"            V.0.e.r.h.l.T J j.3.h.c.z.c.c.c.c.j.l.V.f.U x.K.a.&.V.j.c.c.c.c.h.j.c.z.X.0.4.x 4.e.9.e.e.j.r.                      ",
"        e.N.r.r.e.j.c.c.V.j.h.j.4.j.c.z.c.c.c.r.0.f.&.-.d.K.p.-.f.N.j.c.c.j.h.j.c.4.9.c.j.j.r.9.e.e.e.0.j.0.                    ",
"      0.F.r.c.l.j.h.z.c.c.l.c.c.c.X.j.c.z.z.c.r.h.-...I m.T.*.=.=.f.V.j.c.z.z.j.4.j.j.c.c.j.z.c.r.9.e.e.e.j.r.                  ",
"      j.j.z.c.c.c.j.j.l.z.c.c.c.j.r.4.h.C.z.j.f.&.f.%.f.L.!.s.U ;.Q p.V.j.c.h.} j.c.z.c.c.c.c.j.r.9.r.0.0.r.z.                  ",
"      j.A.z.c.c.c.z.c.c.c.c.c.c.j.c.l.5.e.z.j.%.h.U :.j.I.~.v.+.&.;.=.p.V.j.6.h.c.j.z.c.c.c.j.9.9.9.9.h.j.j.V.                  ",
"      j.A.z.l.c.c.c.c.z.z.l.z.c.c.c.c.j.,.f.&.-.-.;.z.g.P.~.Z.N.:.-.;.;.f.y.v.l.l.l.j.j.c.j.j.j.j.r.j.c.c.c.C.                  ",
"      j.C.c.c.z.c.z.c.c.c.c.c.c.c.j.j.r.l.=.:.&.:.r.z.0.I.^.v.j.r.O.%.f.=.f.g.j.c.N.j.c.c.j.j.c.j.j.c.c.c.c.C.                  ",
"      j.A.z.c.z.c.c.z.c.c.c.c.c.j.9.0.f.-.;.P :.u.j.j.h.Y.^.Z.h.j.V.9.%.&.-.c.h.h.j.c.c.z.j.j.c.z.z.c.c.c.c.C.                  ",
"      h.C.c.c.c.c.z.j.c.c.c.j.l.l.0.h.%.P ;.p.j.j.j.j.j.U.^.Z.j.j.j.z.h.%.&.:.N.9.e.c.c.j.c.z.z.z.z.c.c.c.c.C.                  ",
"      h.N.N.z.c.l.c.c.j.j.c.C.l.g.h.k.;.g -.r.j.h.c.V.l.Y.^.Z.h.c.j.j.h.h.;.:.:.c.r.h.c.c.z.c.c.j.h.c.c.c.c.C.                  ",
"      [ 7.7.7.9.9.r.r.j.A.j.7.| g.=.%.p.h.0.l.j.j.c.c.g.Y.^.Z.j.z.z.0.j.e.N.;.f &.l.7.7.r.A.c.e.e.9.e.h.e.0.8.                  ",
"      7.j.r.z.j.r.r.h.A.G.A.h.>.#.h.-.I :.7.j.C.C.l.l.l.I.~.Z.l.l.j.V.l.8...&.%.&.9.#.h.C.G.D.c.h.c.z.9.9.9.r.                  ",
"      j.C.c.c.V.c.c.D.G.D.G.D.j.o.7.;.-.&.-.r.V.c.C.j.l.l.b.l.l.c.C.j.8...=.=.:.g.| h.S.D.G.D.D.j.l.j.j.j.r.V.                  ",
"      r.C.c.c.c.C.4.{ J.D.D.G.f.r.7.#.;.f.&.=.7.j.V.C.l.c.l.c.c.C.N.r.+.=.;.=.9.} h.o.A.G.D.G.l.W c.z.z.c.j.j.                  ",
"      j.A.c.c.l.c.r.@ 2.J.G.E m c.j.h.i.=.p.;.=.7.N.c.c.l.c.c.C.N.j.O.;.;.&.:.0.j.c.} s A.J.A.3 V C.j.c.c.V.C.                  ",
"      j.A.c.z.z.c.s., # +.{ ; R c.j.c.e.w.=.=.=.=.r.j.C.c.l.C.l.7.:.&.;.=.9.8.l.c.c.4.6 M h.u @ J V.l.c.c.l.C.                  ",
"      j.S.z.c.z.C.9.= , * 6 i R c.c.c.j.q.r.-.-.I ;.w.h.C.C.C.0.e.U p.:.+.q.j.l.c.C.4.i a 5 * * Z j.j.c.c.c.C.                  ",
"      j.A.c.z.z.c.h.= = 3 s i L C.c.c.c.z.<.7.;.p.-.%.#.j.V.0.h.%.&.=.$.,.t.l.l.l.c.7.i a p 3 % J c.c.c.c.c.C.                  ",
"      j.A.z.c.c.z.h.= , 3 a i A c.z.c.c.3.j.j.r.;.P g f. .} h.;.=.;.f.7.c.5.e.c.j.C.4.i a 6 3 % R C.j.c.l.c.C.                  ",
"      j.V.c.c.c.c.9.3 , 3 a i B c.c.c.3.j.c.z.r.7.=.:.;.Y Y =.;.:.N.w.c.c.c.5.9.c.c.4.t a 6 , % R C.j.z.j.z.S.                  ",
"      { r.j.j.h.c.9.= = 4 a t Z C.c.2.j.c.c.c.c.9.r.;.=.p.=.f.%.j.7.h.c.z.c.c.9.h.C.o.i l 6 , % R C.c.r.e.j.3.                  ",
"      4 J 0.c.z.c.9.* = 5 a t T C.2.9.z.c.c.z.r.9.7.r.-.=.:.%.$.q.e.j.c.c.c.c.c.4.h.9.t s 6 ; % H c.j.0.r._ h                   ",
"      > p A c.c.c.9.* > * a p A 3.3.j.c.c.z.c.j.9.r.7.9.-.-.+.q.j.h.c.c.c.c.c.c.c.9.{ t a 6 , % V r.9.r.Z a ,                   ",
"        > a A j.V.4.* > 3 a i n 9.r.j.j.z.c.c.h.9.9.r.#.#.7.7.c.c.c.z.l.z.c.c.c.j.c.{ 6 a 8 3 $ V j.r.T d >                     ",
"          1 p Z r.2.$ - > u p Z r.h.c.c.c.z.l.j.9.r.0.h.#.[ c.c.z.c.c.c.c.z.c.c.c.c.2.i a 5 3 % R c.n d u                       ",
"            > a Z 3.: X > u 5 m c.c.c.c.c.c.c.j.r.9.0.e.9.r.c.c.c.c.c.c.c.j.j.j.c.c.} 1 u : $ X T L d a                         ",
"              1 q Z R + + 8 8 3.c.j.c.c.j.c.j.j.c.j.9.e.e.h.c.j.c.z.c.c.l.j.c.z.h.9.7.x 1 : . x E M i                           ",
"                > q V R : 8 ` 4.j.c.c.z.c.z.j.h.c.c.j.e.0.r.c.z.l.c.c.j.l.c.c.j.9.r.9.{ m o x L l >                             ",
"                  > a Z R ` { o.j.l.c.l.l.c.z.j.j.c.z.j.7.3.c.c.c.z.c.c.c.c.j.j.r.0.7.{ { R L d 1                               ",
"                    > a M { 2.4.z.j.c.z.l.c.j.z.j.z.z.c.j.r.c.c.c.c.c.c.c.c.c.c.c.h.7.{ } L d 3                                 ",
"                      > a Z X.9.c.c.z.c.z.c.z.c.j.z.c.c.r.h.c.c.c.z.z.l.z.c.z.c.j.r.4.{ R d 1                                   ",
"                        > p V 3.C.z.z.c.c.c.c.c.z.c.c.c.e.7.z.z.c.c.c.c.c.z.c.z.r.r.9.Z l 3                                     ",
"                          > p b 3.r.j.r.e.j.e.r.r.e.r.r.} ! 3.7.z.e.e.0.e.e.9.9.7.7.E a ,                                       ",
"                            > e 3.z.j.r.} 7.7.7.7.7.7.1.j.h.r.j.j.j.z.7.h.z.z.h.j.~ 6 ,                                         ",
"                              w C.c.z.z.r.c.c.C.c.c.c.z.c.c.c.c.c.c.c.r.z.z.z.z.c.c.h                                           ",
"                                V.A.C.C.z.c.C.C.C.C.C.} h.V.z.V.c.z.c.7.C.C.A.c.A.G.                                            ",
"                                l H F m G >.2.2.2.2.2.7 4 u 9 z r 9 9 , Z H V F H !                                             ",
"                                ~ K J K J j 0 , 4 0 r K W b j K K ] ! V r v K K ~ >.                                            ",
"                                c.A.A.C.c.V.V.9.r.V.V.C.C.C.j.A.C.C.V.C.j.V.C.V.V.H.                                            ",
"                                0.j.h.j.h.h.j.3.9.c.e.h.h.9.>.h.h.j.h.j.3.j.V.c.V.G.                                            ",
"                                F J D S F H F C G D S F F J H H V F J H F K H H J ~                                             ",
"                                v.C.j.e.c.c.c.V.C.V.z.c.z.c.c.c.r.j.l.c.v.e.e.7.e.F.                                            ",
"                                C.A.j.h.A.j.l.A.} h e.Z.V.C.C.C.j.j.C.C.C.C.z.z.G.j.                                            ",
"                                W J J m J F F J h   F W J J H W c c ] H H J F S J                                               ",
"                                9.e.e.e.q.7.e.e.c.C.z.9.6.e.e.e.e.j.j.>.3.z.9.e.h.c.c.                                          ",
"                                c.A.c.b.z.z.C.c.c.C.c.c.z.c.c.c.c.C.A.9.h.F.c.C.C.E.c.                                          ",
"                                { C.c.c.e.e.c.c.c.c.c.c.e.c.c.c.z.c.v.2.9.S.z.z.z.S.c.                                          "
};
