/* XPM */
static char *altar_224x288___standard_31671263392[] = {
/* columns rows colors chars-per-pixel */
"64 64 191 2 ",
"   c None",
".  c #7F553E",
"X  c #6D5349",
"o  c #735C4D",
"O  c #7C5D48",
"+  c #7B684D",
"@  c #7E6550",
"#  c #7E6950",
"$  c #86664C",
"%  c #8A6649",
"&  c #8D6B4C",
"*  c #826D4F",
"=  c #916F4F",
"-  c #8F724C",
";  c #9B7C4C",
":  c #90744E",
">  c #826E52",
",  c #8D6C51",
"<  c #966C53",
"1  c #8B7354",
"2  c #927252",
"3  c #9C7257",
"4  c #957B54",
"5  c #9A7C55",
"6  c #9C755A",
"7  c #937C5D",
"8  c #9D7C59",
"9  c #A5785F",
"0  c #A27758",
"q  c #8E6F60",
"w  c #9F7C60",
"e  c #9C8156",
"r  c #9C825A",
"t  c #A5884A",
"y  c #A18356",
"u  c #A3855B",
"i  c #A68A5C",
"p  c #A88B5E",
"a  c #A8855F",
"s  c #B5965B",
"d  c #B6985D",
"f  c #A5BD5B",
"g  c #9F8560",
"h  c #A58363",
"j  c #A98363",
"k  c #A48B64",
"l  c #A98B62",
"z  c #A78268",
"x  c #AB856A",
"c  c #A68E6F",
"v  c #AB8B6A",
"b  c #AC9363",
"n  c #AD926A",
"m  c #B49967",
"M  c #B2946B",
"N  c #B49B6D",
"B  c #B6956B",
"V  c #A48D77",
"C  c #B08F71",
"Z  c #AD9577",
"A  c #B39673",
"S  c #BB9572",
"D  c #B59B71",
"F  c #BB9D74",
"G  c #B99E7B",
"H  c #B7A06E",
"J  c #BBA16D",
"K  c #AFBD63",
"L  c #B1BE66",
"P  c #B3BE69",
"I  c #B8BF6D",
"U  c #BDB56E",
"Y  c #BDA473",
"T  c #BDA27C",
"R  c #BEBE72",
"E  c #C49D77",
"W  c #C2A46B",
"Q  c #C6A465",
"!  c #D2B069",
"~  c #C2A574",
"^  c #C4A875",
"/  c #C8AB73",
"(  c #C3A67C",
")  c #C4AB7C",
"_  c #CAAD7C",
"`  c #C8A17B",
"'  c #D0A77A",
"]  c #D2AE7E",
"[  c #C6B07E",
"{  c #CCB37D",
"}  c #CDB97D",
"|  c #C7B876",
" . c #D3B17E",
".. c #D2BA7D",
"X. c #D5B877",
"o. c #B6C16C",
"O. c #B9C06F",
"+. c #BCC272",
"@. c #BEC679",
"#. c #B7C573",
"$. c #C1C276",
"%. c #C5C37B",
"&. c #CAC37D",
"*. c #DEC078",
"=. c #7A82C5",
"-. c #A38E81",
";. c #A89784",
":. c #B59C85",
">. c #B89E84",
",. c #A89698",
"<. c #BBA383",
"1. c #B6A48E",
"2. c #BDA38C",
"3. c #BFA98C",
"4. c #BDAE92",
"5. c #8C86AD",
"6. c #8C89B5",
"7. c #978FB1",
"8. c #988FB0",
"9. c #C5AB82",
"0. c #CAAD81",
"q. c #C7AA8B",
"w. c #D0AA86",
"e. c #CBB282",
"r. c #CFB985",
"t. c #CBB68D",
"y. c #D3B483",
"u. c #D8B485",
"i. c #D4BA86",
"p. c #D9BB86",
"a. c #D7B689",
"s. c #D8B789",
"d. c #D6BD89",
"f. c #D9BD8A",
"g. c #C7B093",
"h. c #CFBC95",
"j. c #CFBE9B",
"k. c #C9B392",
"l. c #D1BD95",
"z. c #D2BF9A",
"x. c #CDBFA2",
"c. c #C7C683",
"v. c #CCC582",
"b. c #CDC989",
"n. c #D3C385",
"m. c #DBC286",
"M. c #D6C48A",
"N. c #DBC48D",
"B. c #DDC88E",
"V. c #D2C98A",
"C. c #CFC29F",
"Z. c #DDC691",
"A. c #DDC990",
"S. c #D3C39D",
"D. c #DCC69A",
"F. c #DECA9A",
"G. c #D6C990",
"H. c #E0C58F",
"J. c #E1CA8E",
"K. c #E1C691",
"L. c #E2CC93",
"P. c #E0CC9C",
"I. c #E5D295",
"U. c #E8D497",
"Y. c #E9D897",
"T. c #EAD59A",
"R. c #ECDB99",
"E. c #F3DC9E",
"W. c #F1DA97",
"Q. c #F2E19E",
"!. c #CEC5A8",
"~. c #CFC8A9",
"^. c #D2C6A4",
"/. c #D0C9AB",
"(. c #DDCBA7",
"). c #D2C7BD",
"_. c #E1CEA2",
"`. c #E1CFA8",
"'. c #E2D1A4",
"]. c #E5D5AD",
"[. c #E7D9B2",
"{. c #E8DAB6",
"}. c #EADDBD",
"|. c #E5D4B2",
" X c #F6E5A0",
".X c #FAE6A3",
"XX c #FCEAA4",
"oX c #ECE2C3",
"OX c #EEE5CA",
"+X c #F0E7CE",
"@X c #F0E8CF",
/* pixels */
"                      R.                                                                R.                                      ",
"                    R.Q.Q.                                                            R.XXQ.                                    ",
"                  R.XXY.Y. X                                                        Q.Q.R.Y.XX                                  ",
"                  N I.I.R. X*.                                                      W.R.Y.Q.J.5                                 ",
"                  & m R.R.X.Q                                                       ! B.Q.n.e :                                 ",
"                  e - N } 2./                                                       q.( } e e e                                 ",
"                  5 4 ; :.=.2.                                                      8.5.s 4 i 4                                 ",
"                  4 4 t ,.8.X.d.d.d.A.A.A.A.N.f.i.f.d.y.` N.Z.A.L.A.N.N.A.Z.A.A.L.X.1.6.m 4 e e                                 ",
"                  e e 4 J 2.{ Z.i.N.L.A.L.A.A.A.f.f.f.p.i.N.A.A.A.A.N.L.A.A.L.A.L.B.T 9.d 4 i 4                                 ",
"                  4 4 e W <./ i.d.A.N.A.B.A.A.A.Z.N.Z.d.y.f.A.A.N.N.d.A.A.A.B.A.A.m.T ( d : e e                                 ",
"                  4 4 e J 1./ N.N.A.Z.A.A.A.A.Z.A.Z.A.N.a.N.N.A.A.N.N.Z.A.A.A.Z.B.m.<.9.d 4 u e                                 ",
"                  5 4 e W 1.Y f.A.A.B.A.A.A.B.A.A.B.Z.M.d.A.A.A.B.A.A.A.A.Z.B.N.A.n.<.9.s 1 i 4                                 ",
"                  1 4 r Q >./ d.B.A.A.A.A.B.N.Z.Z.B.A.Z.N.B.A.N.A.A.A.Z.A.A.L.B.A.i.Z 9.s 4 i 1                                 ",
"                  r 4 4 W :.^ d.d.N.A.A.N.A.A.A.A.A.Z.M.f.A.Z.B.A.A.Z.Z.B.A.A.Z.B.p.T ( d 1 4 b                                 ",
"                { 1 5 1 m :.^ N.N.M.N.N.N.A.A.B.B.N.N.i.u.N.A.A.A.A.A.Z.A.A.Z.B.A.n.G 9.s 4 # k _                               ",
"              i.i.k + 4 J -.Y B.Z.A.N.d.A.Z.A.A.Z.B.N.i.%.f.A.A.A.A.Z.Z.A.A.B.Z.B.i.V Z i 1 > ) d.i.                            ",
"            i.N.d.f.g # r ;.Z.(.A.B.Z.B.N.Z.Z.B.B.Z.m.O.%.+.f.Z.Z.Z.N.N.N.A.A.B.F.N.q.c r # ) N.d.N.N.                          ",
"          f.N.d.d.M.N.k k A./.(.A.A.A.A.Z.Z.Z.A.D.m.O.%.v.+.$.Z.B.A.Z.A.B.N.N.N.P.j.C._ 7 ) N.i.d.d.L.N.                        ",
"        p.N.p.d.N.B.A.B.N.f.G.~.A.A.A.A.A.B.M.i.N.+.%.b.@.V.+.B.N.B.A.Z.Z.M.N.B.l.k.N.B.i.d.i.d.d.i.i.K.p.                      ",
"      L.f.N.Z.f.N.A.Z.A.N.Z.B.A.!.D.A.Z.A.A.f.N.+.+.@.c.b.#.%.+.m.N.N.A.N.D.L.S.^.N.A.A.B.N.N.d.d.d.f.p.L.f.                    ",
"    f.L.N.L.N.A.N.N.B.Z.B.A.A.N.d.~.Z.Z.A.N.N.$.M.@.b.A.D.v.@.c.O.Z.Z.Z.B.F.).h.J.Z.A.A.B.A.Z.d.i.f.i.i.i.L.                    ",
"    N.L.Z.Z.A.A.Z.A.Z.A.A.A.A.Z.N.F./.Z.N.K.+.%.+.%.F.F.D.Z.c.@.+.O.m.N.N.C.^.B.B.B.N.A.Z.N.d.i.i.d.d.N.f.K.                    ",
"    N.U.N.Z.B.A.Z.A.A.Z.A.A.A.N.Z.B.Z.g.m.$.R &.+.F.F.f.s.F.P.v.%.v.+.B.d.j.B.Z.N.N.A.A.A.N.d.N.i.N.A.A.L.L.                    ",
"    N.U.A.A.A.A.A.B.Z.B.A.A.A.A.N.A.f.N.+.%.+.+.f.(.F.Z.P.D.(.D.R o.M.+.m.N.B.A.A.N.Z.A.N.Z.A.A.N.A.A.Z.N.U.                    ",
"    N.U.Z.A.A.A.A.B.A.A.A.A.A.B.M.f.m.v.%.I +.Z.Z.`._._.P.P.'.'.N.&.I +.$.K.f.N.N.A.A.A.N.N.A.N.N.A.A.A.K.I.                    ",
"    N.L.A.A.Z.B.A.Z.A.Z.A.A.A.A.i.d.+.L %.+.N.N.f.}.[._.P.'.{.[.f.Z.v.o.+.v.m.p.N.A.N.A.N.N.A.A.A.A.A.N.Z.I.                    ",
"    N.K.A.A.A.A.A.A.A.N.A.A.A.f.N.B.+.f O.N.d.N.Z.oX}.[.'.[.oX}.f.N.N.n.+.%.G.A.p.N.A.B.Z.A.A.B.N.A.Z.Z.L.U.                    ",
"    e.p.y.d.d.d.N.N.N.L.N.i.y.f.$.+.n.v.i.N.N.N.L.oX+X}.{.}.OX}.N.i.N.f.Z.v.f %.N.i.i.N.A.A.N.d.d.N.N.N.f.s.                    ",
"    ] s.p.f.N.y.i.d.A.R.L.y.' } V.R L V.u.N.L.L.N.].@XoXoXOXOX'.N.N.B.u.} $.K o.n. .y.N.Y.U.Z.N.N.N.d.i.y.f.                    ",
"    N.L.Z.L.L.N.Z.U.R.R.R.I.N.] p.%.+.o.} f.A.A.J.N.].@XOXOX'.N.L.L.p.} o.o.%.v.] d.I.R.Y.Y.U.N.Z.N.f.N.p.K.                    ",
"    N.L.N.A.L.L.d.n.R.R.R.R.B.d.{ X.+.M.o.$.p.N.L.A.m.].OX'.m.L.A.N.} +.%.$.v.] i.i.I.R.Y.R.I.e.Z.A.N.A.N.H.                    ",
"    N.I.A.A.N.A.d., V.R.R.n.N A.N.i.f.+.v.%.| i.N.L.A.A.A.A.L.A.N.i.+.$.O.%.u.i.B.[ H R.R.R.b n L.N.Z.A.K.I.                    ",
"    N.L.Z.A.A.A.d.< & m.m.; N A.Z.A.f.n.O.$.O.| f.Z.L.A.A.A.L.p.i.O.%.%.%.u.N.J.A.r.; J Y.N O B H.A.A.A.K.L.                    ",
"    N.U.B.A.A.L.d.4 & 2 r y N L.Z.Z.N.a.m.#.%.I %.f.N.L.L.L.p.i.+.%.&.$.s.f.L.N.L.r.i u u & & M N.N.A.N.K.I.                    ",
"    N.U.A.Z.A.A.n.2 = 4 i u N L.B.Z.A.m.q.i.@.%.&.R ] m.A.f.N.+.I $.&.w.l.`.N.N.A.i.y p e 4 % M L.B.A.A.Z.I.                    ",
"    N.U.Z.A.N.A.n.< < 2 i y N A.Z.Z.P.^.h.p.f.&.L f &.u.u.f.v.o.$.%. .N.!.D.B.A.L.r.y i e 2 % D L.N.A.A.L.L.                    ",
"    N.L.A.A.A.A.d.1 < 2 u y N J.B.B.C.S.J.A.i...o.$.v.I U +.%.%.N.p.B.A.N.!.Z.Z.A.i.y i 5 2 % D L.N.Z.N.Z.U.                    ",
"    r.K.N.Z.N.Z.M.2 < 2 i u m _.P.C.M.B.A.A.A.i.f.%.+.v.+.v.o.M.p.M.A.Z.B.A.~.D.A.r.u p 5 2 % N L.Z.N.d.N.N.                    ",
"    0 ^ f.N.N.Z.d.= & 5 u e m L.x.h.N.A.A.N.N.d.s.n.+.R %.+.%.p.i.Z.A.B.Z.B.A.!.(.i.e p 8 < % N A.N.d.N.e.n                     ",
"    , j Y L.B.A.M.1 , , i u N ^.t.N.A.A.A.N.f.i.d.i.p.+.%.| u.N.d.Z.Z.A.Z.Z.A.m.C.t.y p 5 2 % n N.i.d.^ l 8                     ",
"      , i ^ A.A.i.> & 2 p y c S.i.N.N.N.A.A.N.i.i.d.] } &.u.N.A.Z.A.Z.A.A.A.A.B.A.4.5 p 4 < $ c N.m.[ i 0                       ",
"        4 u ^ N.e., , , u y M p.N.B.Z.A.A.A.N.d.d.d.d. .' N.A.Z.Z.A.B.Z.A.A.A.N.A.r.u i 4 1 % N A.J p k                         ",
"          , i T r.@ $ , e e c N.N.A.N.A.A.A.N.i.d.i.d.i.y.A.A.B.Z.A.A.Z.N.N.N.Z.A.) 4 u , , @ D { b M ,                         ",
"            4 i Y Z o @ r 1 Y L.Z.A.A.A.A.A.N.N.N.i.d.a.M.N.A.A.B.Z.Z.B.B.N.A.N.f.i.g 1 1 X 7 Y m b ,                           ",
"              , a F N + 1 N r.A.A.Z.A.A.A.N.M.Z.A.N.i.d.d.A.A.A.A.A.Z.A.A.A.N.d.d.i.^ k + 7 J b u -                             ",
"                , a J n N [ [ N.A.A.B.Z.B.N.N.Z.A.A.M.y.y.A.Z.B.B.Z.B.A.Z.B.N.M.i.r.) _ l Y b 8                                 ",
"                  , p J [ { e.Z.N.A.B.A.A.A.N.N.A.A.A.d.i.A.Z.A.A.A.Z.Z.A.A.A.B.f.y.^ [ ^ b e                                   ",
"                    , p J [ i.A.A.A.A.A.Z.Z.A.N.N.A.A.N.N.A.A.Z.Z.A.B.A.A.A.A.A.N.r.) Y b e                                     ",
"                      , p D y.A.Z.A.A.Z.A.A.Z.N.N.A.Z.f.d.A.A.Z.A.Z.A.A.A.A.Z.M.f.i.Y b y                                       ",
"                        , a D d.N.N.Z.N.Z.N.N.N.N.Z.N.y.E d.d.N.N.N.N.f.N.f.d.i.i.0.l 8                                         ",
"                          , w ) N.N.d.' y.e.e.y.y.e._ u.y.y.f.N.f.f._ d.f.d.M.f.E 8 8                                           ",
"                            1 L.A.Z.N.i.A.A.H.J.N.A.N.A.A.A.A.A.A.A.N.Z.A.A.Z.Z.N.h                                             ",
"                              L.L.P.L.Z.A.A.B.D.A.L.i.N.L.L.L.L.L.L.f.A.L.L.L.A.R.9.                                            ",
"                              E e.e.[ ^ f.M.N.M.m.N.x l F N F S n D j [ e._ [ e.s.                                              ",
"                              x x x x x 9 6 3 3 6 6 z x 3 < j x z j 0 < 3 j x z S                                               ",
"                              L.L.K.K.f.d.i.^ w.y.i.Z.Z.N.p.K.Z.K.H.N.i.N.D.K.Z.E.                                              ",
"                              N.I.A.A.A.A.I.p.f.I.A.A.A.Z.d.L.A.L.L.A.N.A.I.L.L.E.                                              ",
"                              S S A Z F F F B B Z Z G A S M D D F Y D C ( ) T ) y.                                              ",
"                              d.Z.r.e.d.d.M.d.N.N.e.d.d.d.d.d.e.y.d.d.d.0.) ( [ f.                                              ",
"                              U.Y.L.N.I.A.P.I.L. .H.I.I.P.I.I.L.L.I.I.P.I.L.L.T.Q.                                              ",
"                              _ e.( F [ ( F _ 0   D e.( ) ) 0.S D e.) 9.9.F S e.h                                               ",
"                              ( 0.9.9.( ( 9.) Z.T.d.9.( ) 9.9.0.e.w.~ F e.0.9.T N.                                              ",
"                              I.I.L.L.A.Z.L.L.U.T.L.I.N.A.L.L.L.P.T.M.N.R.A.I.I..XZ.                                            ",
"                              e.L.Z.A.N.N.A.N.L.A.A.Z.M.Z.A.A.B.N.L.9.i.I.Z.B.B.U.A.                                            "
};
