/* XPM */
static char *altar_224x288___standard_41671263392[] = {
/* columns rows colors chars-per-pixel */
"64 64 191 2 ",
"   c None",
".  c #6E5449",
"X  c #735A4A",
"o  c #775A48",
"O  c #7D6A4E",
"+  c #855C43",
"@  c #82624A",
"#  c #8A6649",
"$  c #8D694B",
"%  c #846E4E",
"&  c #8C714D",
"*  c #94754E",
"=  c #98764F",
"-  c #816953",
";  c #8D6D51",
":  c #916E53",
">  c #9A6D54",
",  c #8B7254",
"<  c #8F7958",
"1  c #8D7957",
"2  c #937252",
"3  c #9A7455",
"4  c #937A53",
"5  c #997A55",
"6  c #9D7459",
"7  c #937C5A",
"8  c #9B7E59",
"9  c #A07756",
"0  c #A2775C",
"q  c #A57C61",
"w  c #9E8155",
"e  c #9D845C",
"r  c #A08256",
"t  c #A2865B",
"y  c #A58A5C",
"u  c #A98D5D",
"i  c #A9915E",
"p  c #A6BC5A",
"a  c #9F8760",
"s  c #9F8966",
"d  c #A58661",
"f  c #AB8166",
"g  c #A48B64",
"h  c #AB8B63",
"j  c #AB856A",
"k  c #A58C6B",
"l  c #B48C6D",
"z  c #B88E69",
"x  c #AD9362",
"c  c #AD936A",
"v  c #B19663",
"b  c #B49963",
"n  c #BB9E64",
"m  c #B3956D",
"M  c #B59A6D",
"N  c #B99D6C",
"B  c #AE9473",
"V  c #B29574",
"C  c #B99572",
"Z  c #B69B72",
"A  c #BA9C72",
"S  c #B79C78",
"D  c #BCA36D",
"F  c #BEA165",
"G  c #ADBD62",
"H  c #B1BE67",
"J  c #B7BF6C",
"K  c #BABE6D",
"L  c #BAB76C",
"P  c #BDA374",
"I  c #BEA579",
"U  c #BFA87A",
"Y  c #BDBF71",
"T  c #C09E77",
"R  c #C4A56C",
"E  c #C6A96E",
"W  c #C9AA6E",
"Q  c #C5A567",
"!  c #C2A675",
"~  c #C3A976",
"^  c #CBAD73",
"/  c #C3A67C",
"(  c #CBA67C",
")  c #C4AC7C",
"_  c #CCAC7C",
"`  c #D1AC7D",
"'  c #C8BD77",
"]  c #C6B07E",
"[  c #CBB27C",
"{  c #C7BE7B",
"}  c #CBBD7C",
"|  c #C8B574",
" . c #D3B57D",
".. c #D5B97E",
"X. c #DCBB78",
"o. c #ADC064",
"O. c #B4C06B",
"+. c #B9C16E",
"@. c #BCC272",
"#. c #C1C277",
"$. c #C4C37A",
"%. c #CAC27D",
"&. c #B69C81",
"*. c #C6AC80",
"=. c #CAAD81",
"-. c #CDAB8A",
";. c #C7B280",
":. c #CCB382",
">. c #CEBA82",
",. c #CCB38E",
"<. c #D3B483",
"1. c #D9B686",
"2. c #D5BB86",
"3. c #DABB87",
"4. c #DAB68A",
"5. c #D6BD89",
"6. c #D9BE8B",
"7. c #D6B588",
"8. c #CBB692",
"9. c #C9B699",
"0. c #CBBA9B",
"q. c #CAB693",
"w. c #D3BF93",
"e. c #CBBEA1",
"r. c #C6C783",
"t. c #CDC482",
"y. c #C3CA89",
"u. c #D3C384",
"i. c #D6C28A",
"p. c #DBC48D",
"a. c #DEC98E",
"s. c #D5C194",
"d. c #DCC691",
"f. c #D3CF94",
"g. c #DDC990",
"h. c #D5C599",
"j. c #DCC699",
"k. c #D7CE98",
"l. c #DECB9B",
"z. c #CED193",
"x. c #D0D297",
"c. c #D0D79E",
"v. c #D1D89F",
"b. c #DDD09C",
"n. c #E0C58E",
"m. c #E0CA8E",
"M. c #E1C691",
"N. c #E1CC93",
"B. c #EBCE96",
"V. c #E0CE9D",
"C. c #E2C69A",
"Z. c #E5D195",
"A. c #E9D596",
"S. c #E2D09F",
"D. c #EAD399",
"F. c #ECDB9A",
"G. c #E9D997",
"H. c #F1DE9D",
"J. c #F2E19E",
"K. c #F9E49E",
"L. c #CDC1A3",
"P. c #DFCBA0",
"I. c #D0C2A0",
"U. c #D7D7A4",
"Y. c #DAD6A5",
"T. c #D6D8A4",
"R. c #D6DEAB",
"E. c #D8DFAF",
"W. c #DBD8A7",
"Q. c #DCDEB1",
"!. c #E1CDA2",
"~. c #E3CAA6",
"^. c #E3D1A3",
"/. c #E5D5AB",
"(. c #EAD7B7",
"). c #E4DBB5",
"_. c #E8DCB7",
"`. c #EADDBC",
"'. c #DAE1B4",
"]. c #DDE3B9",
"[. c #F8E6A1",
"{. c #FFEAA8",
"}. c #E1E3BC",
"|. c #ECDDC4",
" X c #EBDFC8",
".X c #EBE2C4",
"XX c #EEE5CB",
"oX c #E5E4C1",
"OX c #F0E4CD",
"+X c #F0E8CF",
"@X c #F0E8D0",
/* pixels */
"                      G.                                                                G.                                      ",
"                    G.K.G.                                                            G.[.G.                                    ",
"                  F.J.G.J.F.                                                        F.H.G.H.F.                                  ",
"                  2.A.A.H.K.                                                      X.K.H.G.J.>.                                  ",
"                  = | J.Z.X.                                                      Q %.A.J.| 4                                   ",
"                  y , ~ ^ E                                                       W W ^ ~ & t                                   ",
"                  t 4 y g e                                                       W 7 y i 4 t                                   ",
"                  t 4 x e v ..5.5.p.g.d.g.g.p.5.j.j.s.=.7.j.V.V.g.M.i.g.g.g.M.g.d.<.x y i 4 t                                   ",
"                  t 4 y W F <.i.3.d.g.g.M.g.N.d.j.l.j.4.6.V.^.S.V.g.p.M.g.g.g.g.Z.u.F ^ y * t                                   ",
"                  t 4 t E N ..5.i.g.g.g.g.g.g.g.V.P.l.j.w.l.V.V.M.i.p.g.d.a.g.g.g...M E y 4 r                                   ",
"                  t 4 t ! Z [ i.a.g.g.g.g.g.d.g.^.^.^.j.j.V.V./.g.p.p.g.d.g.d.d.M...S ^ y 4 t                                   ",
"                  t 4 i R v _ p.g.d.g.g.g.g.a.g./.^.V.j.C.V.^./.V.a.g.g.g.d.a.a.g. .b E y 4 e                                   ",
"                  e 4 i R n [ p.g.g.g.p.g.p.d.g././.^.l.V.^././.l.a.g.a.g.M.g.a.g.) x W y 4 e                                   ",
"                k w 4 e R b _ 5.5.g.g.g.p.g.a.l./././.P.V./././.V.p.g.g.g.g.d.a.g...n W y 4 e M                                 ",
"              [ U & w < S &.) p.p.5.p.p.p.g.d.g._./.P.~.~././.`.V.i.m.g.g.g.d.d.g.[ &.~ y 4 O ~ [                               ",
"              i.[ < O e D a [ N.g.g.i.p.g.g.p.l._._./.k.x.~._.`.V.a.p.a.a.d.a.a.N.) g M e % 7 [ p.<.                            ",
"            M.5.i.<., 1 a P g.l.d.g.g.p.p.d.a.l..X`.W.x.z.Y.(..X^.i.p.p.p.g.g.g.g.p.M g , 1 <.5.3.D.p.                          ",
"          M.5.3.2.p.>.7 S i.2.a.g.g.g.a.d.g.a.k. X).T.U.U.c.).OX^.p.g.g.p.p.p.g.p.[ 2.P e 2.6.2.5.6.B.5.                        ",
"        n.2.5.3.d.d.g.p.5.p.5.8.a.a.a.g.g.g.2.d..XE.Q.T.U.).Q.XX!.i.g.g.p.i.p.M.,.2.g.p.2.5.2.5.5.2.2.N.2.                      ",
"    5.D.5.d.p.i.p.g.g.g.p.g.g.s.9.a.g.g.g.a.1.p.].].E.Q.E.R.Q.oXV.p.g.g.p.j.m.0.s.p.g.g.p.s.p.5.5.5.5.5.B.2.                    ",
"    5.i.M.g.g.a.p.p.g.p.g.g.g.p.8.0.a.M.d.n.u.r..X'..X|.|.E.}.}.f.n.p.g.g.p.9.s.a.d.g.d.g.g.p.2.5.2.2.5.3.5.                    ",
"    p.M.g.d.g.g.g.g.d.g.a.g.g.p.a.s.h.p.d.i.+.t.Q.oXOXXX.XXX].}.r.+.n.p.g.0.w.p.p.g.d.a.g.p.2.5.5.3.p.5.p.p.                    ",
"    p.g.g.g.d.g.a.d.g.g.g.g.g.p.g.M.s.,.u.@.' r.}.OXXX|. XOX.X].S.K %.n.w.h.a.d.p.p.g.a.p.i.p.5.5.p.g.g.C.p.                    ",
"    p.g.a.d.g.a.g.g.g.g.p.g.g.g.a.d.3.i.@.$.+.r. XXX XXXXXXXXXXXy.+.i.@.p.i.g.d.a.p.g.d.p.d.g.p.p.d.g.g.N.i.                    ",
"    p.M.g.g.a.g.a.d.a.d.g.g.d.p.5.5.u.t.@.@.#.C.XXXXOXXXXXXXXXOXP.+.+.Y t.d.i.p.d.g.g.g.i.p.g.d.p.d.g.g.N.p.                    ",
"    p.g.g.g.d.g.d.g.a.g.g.g.g.p.2.u.O.+.%.#.6.C..XOX+XXX+XOXXXXXV.p.$.J $.u.p.1.p.a.a.p.p.g.g.d.g.g.a.g.C.p.                    ",
"    i.p.M.g.g.g.d.g.d.a.d.g.a.3.m.i.J p %.p.i.j.XXXXXX+XOX+XOXOX!.i.p.%.O.u.a.p.3.g.g.g.g.g.g.p.a.g.p.M.Z.a.                    ",
"    =.<.7.5.5.i.p.p.d.g.p.3. .i.@.#.u.$.1.p.p.g.+X+XXXXX+XOXOX@X!.1.p.5.M.@.p %.a.<.2.p.N.p.p.2.5.p.p.p.i.=.                    ",
"    =.1.2.i.i.7.2.5.Z.F.g.<.( u.t.O.+.i.<.m.N.a.).+XOX+XXXXX+X}.d.p.g.` %.+.H +.i.` 2.N.G.B.p.p.p.p.7.<.1.<.                    ",
"    i.p.g.M.g.a.g.G.G.G.G.N.5.` u.#.@.O.u.6.N.M.a./.+XXXXX+X`.m.m.a.1.' O.@.#.2._ p.A.G.G.G.N.p.g.d.i.p.6.i.                    ",
"    i.M.g.g.M.N.>.N.F.G.G.G.i.2.` ' %.u.J %.6.p.N.a.).OX+X`.n.N.M.5.' @.%.#.i.` 5.5.F.F.G.F.g.:.g.d.d.g.p.5.                    ",
"    p.M.g.g.d.N.U 7 A.F.H.~ ) a.i.1.i.+.i.+.} 4.m.M.p._.}.n.m.m.6.%.#.#.+.%. .i.p.P [ F.F.Z.4 ) N.p.g.d.N.p.                    ",
"    a.g.d.a.a.N.] + t A.| * ] N.a.g.6.%.+.#.+.>.6.g.M.a.a.N.a.2.u.J u.@.u.<.g.g.Z.U * } Z.r + _ m.p.g.g.g.d.                    ",
"    p.g.d.d.a.N.) $ $ 5 r r ] g.a.M.5.7.u.+.%.o.u.3.N.N.M.g.1.2.O.u.@.} 1.p.M.p.g.U r y 8 $ : / a.g.g.g.N.p.                    ",
"    p.g.d.a.a.g.) $ 2 3 y w ) N.d.d.p.p.-.%.#.$.$.'  .M.a.5.i.+.Y $.u.-.p.l.g.a.g.~ r y 8 * # ) g.d.g.g.N.p.                    ",
"    a.g.g.d.a.N.) # : 5 y r ] N.a.a.a.L.s.1.i.#.G G 3.<.<.p.#.+.@.} <.h.e.p.g.p.Z./ w u 5 : # :.N.p.d.a.N.p.                    ",
"    i.M.g.g.g.N.) # 2 5 h w ) g.a.d.0.s.a.g.1.' H t.$.L L $.#.t.p.3.a.a.s.9.a.a.Z.U w y = : $ :.N.d.a.p.N.p.                    ",
"    <.i.p.d.i.C.;.# 2 3 y w ) N.d.9.s.a.g.g.p.<.i.@.$.#.$.#.@.d.7.p.g.d.a.s.0.g.g.~ w y 2 , $ ;.N.g.p.5.g.2.                    ",
"    g ~ p.i.p.N.~ # 2 8 y w ) M.q.5.a.a.g.p.p.2.4.u.@.$.' +.t.4.2.d.a.g.g.a.s.q.N.~ r u 4 2 # ] N.i.1.5./ t                     ",
"    2 d :.g.d.N.) # : , y r ) >.>.p.a.a.d.p.5.2.2.4.$.#.#.} 1.i.i.d.g.g.g.g.M.u.<.P r y 3 : $ / i.2.5.P h ;                     ",
"      2 h :.g.N.I @ ; 5 y w M 5.5.p.p.g.g.g.i.5.5.2.` } } 1.a.g.d.a.g.g.g.g.d.g.p.c r y 2 2 @ I 5.p.P y 2                       ",
"        4 y ;.g.P $ ; , y r ! p.p.d.p.a.g.g.5.2.3.5.5.` ` a.g.g.g.g.a.d.g.g.a.p.M.U r y 2 2 $ :.d.v i 8                         ",
"          2 y :.U . ; ; y 5 A g.d.g.g.d.g.g.5.5.5.2.5.<.5.g.d.d.g.g.g.g.p.p.d.d.a.A 4 e - $ O ] P x d                           ",
"            2 h U s . , 7 7 >.g.p.g.g.g.d.g.p.g.i.2.5.7.p.g.g.a.g.g.g.p.p.d.g.i.i.) 7 < - . g P b t                             ",
"              : y ! g . e P 2.g.p.g.a.g.a.i.p.g.p.i.5.5.p.g.d.a.p.g.a.d.g.g.p.2.5.<.P 8 X g D h 4                               ",
"                : g P c P ) >.d.g.d.g.d.d.p.p.d.g.g.5.<.2.g.d.g.g.g.d.g.p.a.i.5.5.>.) P c P i ;                                 ",
"                  2 x P [ ) 2.p.a.g.g.g.g.g.p.p.g.g.d.2.i.g.d.g.g.a.d.g.g.g.g.p.5.:.~ _ P i &                                   ",
"                    2 y P >.i.g.d.g.a.g.g.M.d.i.p.d.g.p.p.g.g.g.g.g.d.a.g.g.g.a.5.[ ) P i 2                                     ",
"                      2 h P 5.g.d.d.g.g.g.g.p.p.d.d.p.1.6.d.g.g.g.d.g.g.g.g.d.5.5.>.M h 2                                       ",
"                        ; y / p.p.p.p.p.p.d.p.p.p.d.g.( ( 2.5.p.p.p.p.6.p.5.2.7.2./ y 2                                         ",
"                          ; d :.p.p.7._ <.<.=.<.<.<._ 2.<.2.p.i.6.5._ p.5.6.p.<.m 9 2                                           ",
"                            k B.a.a.i.5.g.g.m.d.p.p.d.g.g.g.g.a.g.d.i.g.d.d.g.g.2.;                                             ",
"                              F.N.N.M.p.g.g.g.g.g.d.2.M.N.N.M.C.N.N.5.N.C.N.N.Z.V.                                              ",
"                              _ ;.] ) =.p.i.p.p.p.2.9 c Z Z T M c c h <.;.[ ] [ (                                               ",
"                              l j j j f 0 3 : 3 6 6 k f > 6 j j j q 0 : 0 j j j l                                               ",
"                              D.M.M.h.6.4.<.!  .<.5.M.M.i.5.M.M.M.n.i.1.p.d.d.d.B.                                              ",
"                              D.g.N.g.N.g.Z.3.C.Z.N.g.k.5.i.N.g.N.N.g.p.N.N.N.N.D.                                              ",
"                              T Z V V S Z M z C B V V S C m A M A A V V *.I / ) )                                               ",
"                              M.5.<.>.6.5.5.5.p.2.>.i.4.6.6.5.;.5.5.5.2.=./ / ;.<.                                              ",
"                              F.V.d.M.N.N.Z.Z.p.<.N.Z.Z.g.Z.Z.C.Z.Z.Z.N.G.g.B.F.a.                                              ",
"                              7.*.I I ) I I P     I *.*./ ) ;.l P _ ) *./ Z S /                                                 ",
"                              ;.*.) *./ / *.=.C.D.;.*./ *.) *.:.;.,.A / =.=.*.;.                                                ",
"                              J.N.N.N.d.g.N.B.G.G.N.N.d.g.Z.B.Z.N.F.2.g.F.g.Z.N.{.                                              ",
"                              7.N.g.g.6.d.g.d.d.d.d.d.6.d.d.p.g.p.C.I d.Z.d.d.d.G.                                              "
};
