/* XPM */
static char *altar_224x288___standard_51671263393[] = {
/* columns rows colors chars-per-pixel */
"64 64 203 2 ",
"   c None",
".  c #745B4C",
"X  c #7D634C",
"o  c #7D694E",
"O  c #7B6451",
"+  c #845C43",
"@  c #805B4B",
"#  c #825F5A",
"$  c #8D6A4C",
"%  c #836047",
"&  c #906D4E",
"*  c #8D714E",
"=  c #896654",
"-  c #866B51",
";  c #8C6B52",
":  c #946D51",
">  c #9A6F54",
",  c #867353",
"<  c #8C7553",
"1  c #8B7358",
"2  c #8B7456",
"3  c #937252",
"4  c #957B54",
"5  c #997D55",
"6  c #957D59",
"7  c #9B7D5A",
"8  c #9A7559",
"9  c #A2765B",
"0  c #A37F59",
"q  c #A77D64",
"w  c #9B8156",
"e  c #96805C",
"r  c #9D825B",
"t  c #9F895B",
"y  c #A18356",
"u  c #A3845A",
"i  c #A5895C",
"p  c #A8845F",
"a  c #A9905F",
"s  c #A5BC5A",
"d  c #ACBB57",
"f  c #B5BA5B",
"g  c #BABC5F",
"h  c #9D8466",
"j  c #A58362",
"k  c #A98364",
"l  c #A58A63",
"z  c #AA8E64",
"x  c #AB866A",
"c  c #AC8C6B",
"v  c #A48D69",
"b  c #B48C6E",
"n  c #B68B6C",
"m  c #AD9365",
"M  c #AE936B",
"N  c #B19664",
"B  c #B49962",
"V  c #BC9E64",
"C  c #B3956C",
"Z  c #B49B6C",
"A  c #B99D6C",
"S  c #A48F7C",
"D  c #AF9373",
"F  c #B49573",
"G  c #B59A72",
"H  c #BA9C73",
"J  c #BA9877",
"K  c #BEA065",
"L  c #BDA16A",
"P  c #B7A06B",
"I  c #AFBE66",
"U  c #B1BE66",
"Y  c #B5BF6A",
"T  c #B9BF6F",
"R  c #BEB46F",
"E  c #BCA274",
"W  c #BFA57C",
"Q  c #BFA87D",
"!  c #BBBF70",
"~  c #C19E6F",
"^  c #C59D78",
"/  c #C1A366",
"(  c #C3A56A",
")  c #C9A96C",
"_  c #C2A575",
"`  c #C3A876",
"'  c #C3A47B",
"]  c #C4AC7C",
"[  c #CBAD7C",
"{  c #C9A878",
"}  c #D0A679",
"|  c #C6B17E",
" . c #CBB27D",
".. c #CCBF74",
"X. c #D2B27E",
"o. c #D4BC7C",
"O. c #D8BC7D",
"+. c #BBC16F",
"@. c #B4C16A",
"#. c #BCC172",
"$. c #BBC374",
"%. c #C1C276",
"&. c #C4C37A",
"*. c #C9C47D",
"=. c #CBC072",
"-. c #D9C17F",
";. c #8F8187",
":. c #92858D",
">. c #A18F84",
",. c #B59D81",
"<. c #BFA587",
"1. c #BAA289",
"2. c #C6AB81",
"3. c #C8AD81",
"4. c #C6AE8C",
"5. c #D4AF89",
"6. c #CDB382",
"7. c #CFBC84",
"8. c #CCB18B",
"9. c #CCB88E",
"0. c #D2B483",
"q. c #D9B585",
"w. c #D5BA86",
"e. c #D9BC86",
"r. c #D6B788",
"t. c #D6BD89",
"y. c #D9BE8A",
"u. c #C4AD91",
"i. c #C5B194",
"p. c #CAB494",
"a. c #CBB996",
"s. c #CBBA9A",
"d. c #C7B599",
"f. c #D1BD95",
"g. c #D5B89C",
"h. c #E0BF8B",
"j. c #CDBFA0",
"k. c #CDC582",
"l. c #D1C585",
"z. c #DAC283",
"x. c #D3C987",
"c. c #D6C28B",
"v. c #DBC48D",
"b. c #DEC98D",
"n. c #D5C294",
"m. c #DDC690",
"M. c #DDC990",
"N. c #D3C39D",
"B. c #DECA9A",
"V. c #D8C598",
"C. c #E1C38E",
"Z. c #E0CB8E",
"A. c #E1C691",
"S. c #E2CC93",
"D. c #E8CD94",
"F. c #E2CE9A",
"G. c #E5D295",
"H. c #E9D597",
"J. c #E9D897",
"K. c #ECD599",
"L. c #ECDB99",
"P. c #E3D09E",
"I. c #F1DD9D",
"U. c #F0E09E",
"Y. c #CEC2A4",
"T. c #DEC7A2",
"R. c #DECAA4",
"E. c #D4C4A3",
"W. c #E1CDA5",
"Q. c #E4D1A3",
"!. c #E4D4AA",
"~. c #F5DEA0",
"^. c #E7D7B6",
"/. c #E7D9B4",
"(. c #E7D7BA",
"). c #EADDBC",
"_. c #E7D8BA",
"`. c #F9E4A2",
"'. c #FCEAA4",
"]. c #FFF0A8",
"[. c #EBDFC2",
"{. c #EADDCB",
"}. c #DFE0C4",
"|. c #E2E1C6",
" X c #ECE2C3",
".X c #E3E6CF",
"XX c #EDE4CC",
"oX c #E9EACC",
"OX c #EEE5D5",
"+X c #E4E6D0",
"@X c #F1E7D7",
"#X c #F1E9D6",
"$X c #F3ECDA",
"%X c #EFF0DD",
"&X c #F5F0DF",
"*X c #F4EFE0",
"=X c #F6F2E6",
"-X c #F5F7EB",
";X c #F9F6EE",
":X c #F7F8EE",
">X c #FAF7F2",
",X c #FBF9F3",
"<X c #FFFFFE",
/* pixels */
"                    L.L.                                                              J.J.                                      ",
"                  J.`.`.                                                            L.'.'.J.                                    ",
"                H.'.J.J.'.                                                        L.'.J.J.].G.                                  ",
"                m G.J.J.U.z.                                                      Z.L.J.I.G.i                                   ",
"                $ a H.L.z.(                                                       ) z.U.b.i *                                   ",
"                w 4 m O.K /                                                       K / w.t w w                                   ",
"                4 w 4 B , N                                                       l , V 5 t 4                                   ",
"                5 w w N :. .w.y.t.m.M.b.M.v.Q._.W.W.R.g.!.!.!.).!.v.v.M.M.M.M.M.e.2.;.B 4 r 5                                   ",
"                4 w 4 L 1.) v.t.t.M.M.S.M.b.!. X^.W.W.T.Q.!.). X/.v.A.M.M.M.S.M.Z.` 4.V 4 w 4                                   ",
"                5 w 4 K V ) t.t.m.M.M.M.M.b.!. X[._.W.W.Q.). X X!.w.M.b.m.b.M.M.v./ K K 4 w w                                   ",
"                4 w 4 L A ( t.v.M.M.M.M.M.v./.XX).[.).W.^. X).oX).z.M.M.m.M.M.M.v.( L K 4 w e                                   ",
"                4 w 4 / J E t.M.b.m.M.M.B.z./.=XXX).)._. X). X&X).v.M.S.M.m.M.M.v._ W K 4 y 4                                   ",
"                < w e K 1.Q w.v.M.M.M.M.M.z.[.=X$XXX).).).XX&X=XXXz.M.b.M.S.M.M.t.D <.V 4 w 6                                   ",
"                e 4 < K W E w.t.v.M.M.v.M.z. X,X&X$XXX_.XX$X&X,XXXz.B.M.M.M.M.M.v.E W K 4 4 i                                   ",
"              ` 4 w < m A P t.v.v.v.v.v.B.z.XX<X;X=X@XXX#X$X;X,XOXz.M.M.b.M.m.M.v.K K P 4 * e  .                                ",
"            w.c.M o , A m Z b.b.M.v.y.v.M.z.XX<X;X,X$XXX$X,X,X<X$Xz.m.v.m.M.M.M.z.M M z < o E w.y.                              ",
"          t.A.y.y.M o t >.t.W.R.b.b.v.v.B.z.XX<X<X>X-X%X-X;X<X<XOX-.m.v.M.M.v.B.S.4.S i X E v.t.v.Z.                            ",
"        t.Z.w.t.t.v.Z e y.s.V.B.m.b.M.M.M.z.XX<X<X<X-X:X-X<X<X<X#Xz.B.b.v.v.M.b.a.p.6.e E y.w.t.w.v.v.                          ",
"      t.C.t.e.v.m.M.M.c.c.v.d.m.b.M.M.M.B.o.{.<X<X<X<X:X<X<X<X<X#Xz.M.v.v.t.Z.n.p.v.M.t.t.w.t.t.t.w.v.t.                        ",
"    y.v.v.m.c.v.M.m.M.v.m.M.M.d.n.b.M.v.M.o.{.<X<X<X<X<X<X<X<X<XOX-.B.m.v.B.V.s.v.v.M.M.v.v.t.w.t.e.t.C.t.                      ",
"  y.D.v.M.M.M.v.v.m.M.m.b.m.b.y.Y.V.M.m.M.O.[.<X<X<X<X<X<X<X<X<X#Xz.m.M.b.E.Y.b.v.M.M.M.M.M.t.t.t.w.t.w.D.                      ",
"  v.K.M.m.m.M.b.b.M.M.M.M.M.m.v.M.s.m.v.D.U [.<X<X<X<X<X<X<X<X<X.X=.m.v.f.p.v.b.b.M.M.M.m.t.w.t.t.t.v.t.D.                      ",
"  v.K.M.v.M.M.M.M.M.v.M.M.M.M.M.M.m.u.y.&.f }.<X<X<X<X<X<X<X<X<X.Xg b.y.a.S.M.v.v.m.b.m.v.c.v.t.v.M.M.M.K.                      ",
"  v.K.M.M.M.M.m.M.M.M.M.M.m.M.v.M.v.v.*.$.g }.<X<X<X<X<X<X<X<X<X.X..&.k.v.v.M.m.v.m.M.v.v.M.b.c.v.M.m.b.K.                      ",
"  v.K.M.M.M.M.b.m.M.m.M.M.M.M.c.t.v.*.*.#.f XX<X<X<X<X<X<X<X<X<X.Xd ! #.m.v.v.v.b.M.M.v.v.M.m.v.M.M.M.M.K.                      ",
"  v.K.M.m.m.m.M.M.M.b.M.M.M.M.w.t.%.U &.$.o.XX<X<X<X<X<X<X<X<X<X@Xo.#.T k.v.e.t.M.v.v.v.v.M.M.M.M.M.M.v.K.                      ",
"  v.S.v.m.M.M.m.M.M.m.M.A.M.v.v.b.&.d U y.w.XX<X<X<X<X<X<X<X<X<X#Xw.c.#.%.x.b.e.v.M.M.M.M.M.M.v.M.M.M.M.K.                      ",
"  0.h.0.t.t.t.v.v.v.A.m.y.X.e.*.T l.k.7.v.z.{.<X<X<X<X<X<X<X<X<XOXO.v.v.x.s #.v.e.w.v.M.M.v.y.r.v.v.v.y.C.                      ",
"  6.y.w.v.y.t.w.w.m.L.J.w.{ X.x.%.I l.q.v.b.F.>X<X<X<X<X<X<X<X,XW.Z.y. .&.I I k.0.X.v.J.J.v.v.v.v.t.r.0.h.                      ",
"  v.D.M.M.M.m.M.G.J.J.J.J.v.[ q.k.! Y %.y.A.Z.F.>X<X<X<X<X<X<XQ.Z.y. .#.Y &.*.0.w.M.L.J.J.K.v.m.m.y.c.t.D.                      ",
"  y.K.M.M.A.M.c.7.L.J.J.L.b.t.6.X.#.x.#.#.t.v.v.F.>X<X<X<X<XW.z.v.X.#.%.&.*.q.X.w.G.L.J.J.J.6.v.M.v.M.v.S.                      ",
"  v.K.v.M.m.M.b.< 6.U.U.b.Z v.v.w.y.&.&.k.! q.m.b.F.>X<X,XQ.b.Z.t.#.&.#.#.q.q.m.6.Z J.L.U.E 7 M.M.M.M.M.K.                      ",
"  v.K.M.M.M.M.M.r % w.Z.r z M.v.M.v.y.#.! #.#.y.v.Z.F.*XQ.v.y.t.#.%.k.%.q.v.M.M.v.5 N H.] + z v.M.M.M.M.K.                      ",
"  v.K.m.M.M.M.c.7 $ & u y m b.m.M.v.r.y.&.%.! #.y.v.A.Z.Z.v.q.$.%.k.#.q.y.M.M.M.c.i y i $ $ k v.v.M.M.b.K.                      ",
"  v.K.M.M.M.M.m.7 & : y i m M.M.M.m.b.8.0.%.%.*... .v.S.v.y.*.@.&.*.5.6.W.B.b.M.c.i i r 3 $ l v.b.m.M.M.K.                      ",
"  v.K.b.M.m.M.v.7 & 3 y i a m.m.m.b.f.a.e.y.l.U s *.0.q.r.x.Y $.%.X.y.s.t.b.m.M.y.i i u 3 $ z m.m.M.m.M.K.                      ",
"  v.K.M.M.M.M.m.7 & & i y m b.M.Z.E.N.b.M.y.X.+.T k.Y R +.*...c.t.v.S.v.j.V.b.M.y.i i y & $ m M.v.M.v.v.L.                      ",
"  6.A.v.v.v.v.b.r & 3 y i z m.F.f.N.M.v.b.B.t.t.k.T l.@.l.+.k.y.t.M.v.M.M.Y.n.B.c.i i r 3 $ v M.M.M.w.v.D.                      ",
"  7 _ t.v.v.M.v.7 $ 3 i y m Z.f.p.v.M.M.M.c.w.q.e.%.#.*.T %.w.r.v.m.m.M.M.b.a.N.v.i i r : $ l M.c.t.y.w.G                       ",
"  ; j A M.M.M.v.8 & - u y m f.p.z.M.M.v.M.v.w.t.r.t.#.*.%.0.y.v.v.m.b.M.M.M.M.a.9.i i y & $ j v.w.c.| z 0                       ",
"    ; i E b.M.v.1 - ; i y v p.e.c.v.M.M.M.m.w.t.t.0.X.*.X.y.M.M.m.M.b.m.M.M.M.b.i.h i 5 3 $ h t.v.6.m u =                       ",
"      3 u H c.w.8 $ $ t i v w.c.m.m.v.M.b.v.w.t.w.y.0.} t.S.v.M.M.M.M.M.M.M.m.M.w.i i 6 $ $ l A.` i m =                         ",
"        ; i A t.1 X ; 6 u e v.M.M.m.M.m.M.v.t.t.t.t.y.3.b.b.M.M.M.M.M.v.v.M.M.b.7.6 u < - X z 6.N N :                           ",
"          < i G E X X e 3 Z m.m.M.b.M.M.M.v.v.v.w.t.w.t.M.m.m.M.M.M.M.v.v.M.v.t.t.m 2 1 . , E A N <                             ",
"            ; u A H O - C 6.m.M.M.M.M.M.v.t.M.M.v.t.t.t.M.M.M.v.m.M.M.M.M.m.t.t.r.] m X 1 G Z u $                               ",
"              ; u P G C | ] c.M.M.v.M.m.v.v.b.M.M.c.w.0.v.M.M.M.M.b.b.M.v.v.t.w.w.] ] m E N u =                                 ",
"                ; i Z | ]  .v.v.M.M.M.M.M.v.v.m.M.M.c.w.M.M.M.M.m.m.M.M.A.M.M.v.w.` ] ] N i -                                   ",
"                  $ i Z | 7.M.m.b.M.M.M.M.M.v.v.M.M.m.y.M.M.M.M.M.M.m.M.M.M.M.c.w.] ` N i -                                     ",
"                    ; p Z 6.v.M.m.M.M.M.M.M.v.v.M.M.v.r.v.M.M.M.M.M.M.M.M.m.v.t.t.' M i =                                       ",
"                      ; u C w.v.m.m.v.v.m.v.v.v.m.v.r.~ r.t.v.v.v.v.y.v.y.t.q.t.6.m u ;                                         ",
"                        ; 7 H v.c.y.{ 0.6.0.0.0.0.[ 0.6.r.t.y.y.y.6.w.y.y.c.y.' u 0 ;                                           ",
"                          # v.A.m.M.q.b.M.b.m.v.m.m.M.M.M.M.m.m.m.v.v.M.m.M.b.v.M @                                             ",
"                            B.K.S.S.v.M.M.M.A.m.A.t.v.S.S.S.S.S.S.y.M.S.S.S.B.I.9.                                              ",
"                            ~ 6.2.] ' y.c.v.v.v.b.C 0 H G H H M Z j ] 6.3.] | w.^                                               ",
"                            n b x x x q 8 3 3 8 8 q c 9 : q x x k 9 : > k x x J n                                               ",
"                            M.D.A.A.m.r.t.{ [ 0.t.y.A.m.r.A.A.M.m.v.w.y.A.m.C.K.A.                                              ",
"                            m.K.B.M.M.B.G.v.v.D.F.M.B.M.w.S.S.M.D.S.n.v.G.M.G.L.A.                                              ",
"                            F H G D H G Z C n F D G G J C G Z Z E G D ^ ] W ] 6.'                                               ",
"                            y.A.w.] t.c.t.t.v.v.6.w.t.t.t.y.6.r.y.t.t.6.] ' 3.t.6.                                              ",
"                            D.L.D.v.G.B.S.G.S.0.m.G.S.G.S.F.B.D.G.S.F.G.D.A.K.~.]                                               ",
"                            6.6.] H ] ' H 3.k   v 6.2.] ] 2.H C 2.] ] ] ' F ] M                                                 ",
"                            2.3.] ] 2.' 3.2.c.K.c.3.' 2.3.2.3.6.2.' H 3.2.2.Q t.                                                ",
"                            S.K.B.S.A.m.S.S.G.K.G.S.m.m.S.S.S.G.J.v.t.K.S.S.G.~.b.                                              ",
"                            ] G.M.M.v.y.M.M.M.M.M.m.y.m.M.m.m.M.m.6.6.G.v.M.m.M.M.                                              "
};
